<svg xmlns="http://www.w3.org/2000/svg" viewBox="0 0 400 300"><g id="_71_innovation" data-name="#71_innovation"><path d="M275.05,83.15a78.32,78.32,0,0,0-87.71-55.27c-36.06,5.62-64.15,37.21-65.56,73.69,0,1-.06,2-.07,3-.32,25.39,9.83,46.05,29.55,62.23,10.82,8.87,16.29,20.08,16.64,33.93h0v19.83h64.16V200.19h0c.55-14.29,6.83-25.47,18.11-34.64a78.29,78.29,0,0,0,24.88-82.4Z" fill="#fff"/><path d="M232.58,221H167.42l0-20.31c-.34-13.79-5.73-24.76-16.46-33.56-20-16.45-30-37.51-29.73-62.62,0-1,0-2,.07-3,1.42-36.64,29.78-68.52,66-74.16C226.92,21.21,264,44.6,275.53,83a78.8,78.8,0,0,1-25,82.93c-11.46,9.31-17.32,20.43-17.92,34V221Zm-64.16-1h63.16l0-19.86c.54-14,6.53-25.44,18.3-35a76,76,0,0,0,27.93-59.26,76.74,76.74,0,0,0-3.22-22.61,77.68,77.68,0,0,0-87.16-54.91c-35.73,5.57-63.73,37-65.13,73.21,0,1-.06,2-.07,3-.31,24.79,9.57,45.59,29.37,61.83,10.84,8.9,16.34,20,16.81,33.82h0l0,.5Z" fill="#231f20"/><rect x="168.44" y="209.83" width="63.11" height="1" fill="#d1d3d4"/><rect x="168.44" y="199.73" width="63.11" height="1" fill="#d1d3d4"/><path d="M158.44,78.7c.53-1.56,1.05-3.12,1.6-4.67.29-.81.61-1.6.94-2.39a2.28,2.28,0,0,1,2.47-1.52c1.26.14,2.51.41,3.77.61a11,11,0,0,0,2,.26,2.22,2.22,0,0,0,1.4-.45c1.45-1.38,2.84-2.82,4.2-4.27a2.18,2.18,0,0,0,.43-2c-.32-1.52-.69-3-1-4.57a6.11,6.11,0,0,1-.17-1.8,1.7,1.7,0,0,1,.59-1.16,28.19,28.19,0,0,1,7.55-3.44,1.89,1.89,0,0,1,2.15.78c1,1.32,2,2.61,2.9,4a3.05,3.05,0,0,0,3,1.5c1.67-.12,3.35-.15,5-.23a1.89,1.89,0,0,0,1.51-.91c.59-.88,1.16-1.79,1.74-2.67s1-1.54,1.53-2.28a1.91,1.91,0,0,1,2.3-.79c2.32.79,4.63,1.61,6.91,2.49a2,2,0,0,1,1.25,2.23c-.12,1.29-.41,2.55-.62,3.83-.09.6-.18,1.2-.23,1.81a2.46,2.46,0,0,0,.77,2.12c1.22,1.15,2.45,2.28,3.63,3.48a2.74,2.74,0,0,0,2.71.77c1.65-.36,3.29-.76,5-1.12a2.21,2.21,0,0,1,2.77,1.32q1.41,3,2.72,6a2.35,2.35,0,0,1-.85,3.3c-.85.67-1.77,1.26-2.64,1.9-.62.47-1.23,1-1.82,1.46a2.1,2.1,0,0,0-.77,1.72c0,1.73.06,3.46.14,5.19a2.72,2.72,0,0,0,1.39,2.3c.94.57,1.9,1.11,2.84,1.68a18.23,18.23,0,0,1,1.71,1.15,2,2,0,0,1,.77,2.48q-1.16,3.13-2.34,6.24a4.37,4.37,0,0,1-.51.89,1.84,1.84,0,0,1-1.94.91c-1.5-.24-3-.5-4.5-.75l-.34,0a3.24,3.24,0,0,0-3.44,1.2c-.85,1-1.81,1.91-2.72,2.86a3.25,3.25,0,0,0-.83,3.26c.37,1.45.72,2.91,1,4.38s0,2.23-1.41,2.92c-2,1-4.1,1.9-6.18,2.78a2,2,0,0,1-2.74-.72c-.8-1-1.54-2.08-2.29-3.13-1.61-2.27-2-2.47-4.8-2.33l-3.25.19a3,3,0,0,0-2.54,1.48c-.66,1.09-1.29,2.2-2,3.27a10.47,10.47,0,0,1-1.25,1.55,1.53,1.53,0,0,1-1.72.45l-6.56-2.45a4.72,4.72,0,0,1-.84-.49,1.81,1.81,0,0,1-.92-1.93c.23-1.49.49-3,.72-4.45a12.46,12.46,0,0,0,.13-1.37,2.35,2.35,0,0,0-.75-2c-1.19-1.09-2.37-2.2-3.55-3.31a2.58,2.58,0,0,0-2.58-.63c-1.46.35-2.93.67-4.39,1l-.17,0c-1.91.35-2.53.1-3.36-1.66-.92-2-1.77-4-2.58-6a2,2,0,0,1,.79-2.74c1.17-.89,2.36-1.75,3.59-2.54a3.52,3.52,0,0,0,1.75-3.46c-.1-1.55-.14-3.11-.22-4.67a2,2,0,0,0-.92-1.63c-1.29-.83-2.6-1.64-3.89-2.48a4.27,4.27,0,0,1-2.05-2.14ZM208,87.41a14.8,14.8,0,0,0-14.91-14.82,15,15,0,0,0-14.57,14.83,14.8,14.8,0,0,0,14.67,14.74C202.72,102.17,208.43,93.94,208,87.41Z" fill="#fff"/><path d="M184.79,122.73a2.12,2.12,0,0,1-.73-.13l-1.75-.66c-1.6-.59-3.21-1.19-4.81-1.8a4,4,0,0,1-.82-.45l-.12-.08a2.34,2.34,0,0,1-1.14-2.43c.11-.66.21-1.31.32-2,.14-.83.27-1.66.4-2.49a10.93,10.93,0,0,0,.13-1.31,1.86,1.86,0,0,0-.58-1.61c-1.05-1-2.07-1.92-3.1-2.89l-.46-.43A2.11,2.11,0,0,0,170,106c-1,.25-2,.48-3,.71l-1.35.31-.19,0c-2.19.4-3,0-3.9-1.94-.8-1.7-1.6-3.54-2.59-6a2.45,2.45,0,0,1,.95-3.33c1.36-1,2.51-1.85,3.62-2.56a3,3,0,0,0,1.52-3c-.06-1-.1-2-.14-2.92,0-.59,0-1.18-.08-1.77a1.45,1.45,0,0,0-.69-1.23l-1.59-1-2.31-1.46a4.76,4.76,0,0,1-2.25-2.4.78.78,0,0,1,0-.16V78.7a.45.45,0,0,1,0-.16l.47-1.4c.37-1.09.74-2.19,1.13-3.28.3-.84.63-1.66,1-2.42a2.81,2.81,0,0,1,3-1.82c.84.1,1.69.25,2.51.39l1.28.23.51.08a6.78,6.78,0,0,0,1.43.17,1.84,1.84,0,0,0,1.07-.31c1.54-1.46,3-3,4.18-4.26a1.64,1.64,0,0,0,.3-1.54c-.14-.68-.29-1.35-.44-2-.19-.84-.39-1.69-.56-2.55a6.51,6.51,0,0,1-.17-1.95,2.15,2.15,0,0,1,.82-1.53,28.24,28.24,0,0,1,7.68-3.5,2.36,2.36,0,0,1,2.69,1l1,1.4c.63.84,1.27,1.7,1.87,2.58A2.56,2.56,0,0,0,190.24,59c1.08-.08,2.17-.12,3.26-.16l1.76-.07a1.37,1.37,0,0,0,1.12-.69c.36-.52.7-1,1-1.58.23-.36.46-.73.7-1.09l.25-.38c.42-.64.84-1.29,1.29-1.91a2.42,2.42,0,0,1,2.88-1c2.79,1,4.92,1.74,6.92,2.51A2.5,2.5,0,0,1,211,57.43c-.09.87-.24,1.74-.4,2.57-.08.43-.16.86-.22,1.29a16.11,16.11,0,0,0-.23,1.77,2,2,0,0,0,.61,1.72l.85.8c.93.87,1.89,1.76,2.79,2.69a2.24,2.24,0,0,0,2.25.63l2.43-.55c.84-.19,1.68-.39,2.52-.57A2.72,2.72,0,0,1,225,69.37c.94,2,1.86,4,2.73,6a2.84,2.84,0,0,1-1,3.89c-.5.4-1,.77-1.56,1.14-.37.26-.73.51-1.09.78-.66.48-1.24,1-1.8,1.43a1.6,1.6,0,0,0-.59,1.33l0,1.07c0,1.37.06,2.74.12,4.11A2.23,2.23,0,0,0,222.94,91l1.2.71c.55.32,1.1.64,1.65,1a19,19,0,0,1,1.74,1.17,2.55,2.55,0,0,1,.94,3.05q-1.16,3.13-2.34,6.25a4.46,4.46,0,0,1-.51.91,2.4,2.4,0,0,1-2.49,1.21l-3.24-.54-1.37-.23-.26,0a2.76,2.76,0,0,0-2.95,1c-.6.71-1.27,1.39-1.91,2-.28.27-.55.55-.83.83a2.77,2.77,0,0,0-.71,2.8c.35,1.39.72,2.89,1,4.41.37,1.78-.08,2.69-1.68,3.46-1.86.89-3.89,1.81-6.2,2.79a2.56,2.56,0,0,1-3.33-.87c-.67-.84-1.3-1.73-1.91-2.59l-.4-.56c-1.51-2.13-1.76-2.25-4.36-2.12l-1.83.11-1.42.08a2.5,2.5,0,0,0-2.15,1.24c-.22.37-.44.74-.65,1.11-.44.73-.87,1.46-1.33,2.18a11.5,11.5,0,0,1-1.31,1.62A2.13,2.13,0,0,1,184.79,122.73Zm-14.11-17.84a3,3,0,0,1,2.13.88l.46.43c1,1,2,1.92,3.09,2.87a2.83,2.83,0,0,1,.91,2.4,12.42,12.42,0,0,1-.14,1.41c-.13.84-.27,1.67-.4,2.5-.11.65-.22,1.3-.32,2a1.34,1.34,0,0,0,.7,1.44l.12.08a3.39,3.39,0,0,0,.62.36l4.81,1.8,1.75.65a1,1,0,0,0,1.19-.32,10.87,10.87,0,0,0,1.19-1.48c.45-.7.88-1.42,1.31-2.14.21-.37.44-.75.66-1.11a3.46,3.46,0,0,1,3-1.73l1.41-.08,1.84-.11c2.93-.14,3.52.14,5.23,2.54l.4.57c.6.84,1.22,1.72,1.87,2.54a1.58,1.58,0,0,0,2.15.57c2.3-1,4.32-1.89,6.17-2.77,1.19-.58,1.41-1,1.13-2.37s-.67-3-1-4.36a3.76,3.76,0,0,1,1-3.73l.84-.85c.63-.63,1.28-1.29,1.86-2a3.7,3.7,0,0,1,3.93-1.37l.17,0,1.41.23,3.23.54a1.34,1.34,0,0,0,1.44-.7,3.42,3.42,0,0,0,.46-.79q1.19-3.11,2.34-6.23a1.57,1.57,0,0,0-.61-1.92,18.46,18.46,0,0,0-1.66-1.11l-1.63-1-1.21-.71a3.24,3.24,0,0,1-1.63-2.71c-.06-1.37-.09-2.75-.12-4.13l0-1.07a2.62,2.62,0,0,1,.94-2.11c.57-.49,1.18-1,1.86-1.48.36-.27.73-.53,1.1-.79s1-.71,1.52-1.1a1.87,1.87,0,0,0,.7-2.71c-.86-2-1.78-4-2.71-6a1.72,1.72,0,0,0-2.22-1l-2.5.56-2.45.56a3.24,3.24,0,0,1-3.17-.91c-.89-.91-1.84-1.8-2.76-2.66l-.85-.81a3,3,0,0,1-.93-2.52c0-.64.14-1.27.24-1.85s.15-.87.23-1.31c.15-.81.3-1.66.38-2.48a1.55,1.55,0,0,0-.93-1.72c-2-.76-4.11-1.53-6.89-2.49a1.42,1.42,0,0,0-1.74.62c-.44.61-.85,1.24-1.26,1.87L199,56c-.24.36-.47.72-.7,1.08-.35.54-.69,1.07-1,1.6a2.39,2.39,0,0,1-1.9,1.13l-1.77.07c-1.08,0-2.15.08-3.23.16a3.57,3.57,0,0,1-3.42-1.72c-.59-.86-1.23-1.71-1.85-2.54-.35-.47-.7-.93-1-1.41a1.38,1.38,0,0,0-1.62-.58A26.72,26.72,0,0,0,175,57.17a1.21,1.21,0,0,0-.36.78,5.68,5.68,0,0,0,.16,1.65c.17.85.36,1.69.55,2.53q.24,1,.45,2a2.62,2.62,0,0,1-.55,2.44C174,67.9,172.55,69.42,171,70.9a2.74,2.74,0,0,1-1.74.59,8.75,8.75,0,0,1-1.63-.18l-.49-.09-1.3-.22c-.8-.15-1.63-.29-2.44-.38a1.8,1.8,0,0,0-2,1.21c-.31.74-.64,1.55-.93,2.36-.38,1.09-.75,2.18-1.12,3.27l-.45,1.33v.4a3.88,3.88,0,0,0,1.8,1.78c.78.51,1.54,1,2.31,1.48l1.6,1a2.44,2.44,0,0,1,1.14,2c0,.59.06,1.18.08,1.77,0,1,.09,1.93.15,2.9a4,4,0,0,1-2,3.91c-1.08.7-2.21,1.5-3.56,2.52a1.5,1.5,0,0,0-.63,2.15c1,2.42,1.78,4.25,2.57,5.94.72,1.52,1.09,1.7,2.82,1.38l.15,0,1.35-.31c1-.22,2-.45,3-.7A3.67,3.67,0,0,1,170.68,104.89Zm22.57-2.23h0a15.25,15.25,0,0,1-15.17-15.24,15,15,0,0,1,4.5-10.75,15.13,15.13,0,0,1,26,10.72,14.46,14.46,0,0,1-4.1,10.49A15.19,15.19,0,0,1,193.25,102.66Zm-.19-29.57a14.32,14.32,0,0,0-9.8,4.28,14.07,14.07,0,0,0-4.21,10,14.24,14.24,0,0,0,14.17,14.24h0a14.23,14.23,0,0,0,10.46-4.47,13.48,13.48,0,0,0,3.82-9.75v0a14.26,14.26,0,0,0-14.41-14.32Z" fill="#d1d3d4"/><path d="M192.25,164.52c-1-.13-1.4-.82-1.54-1.76a15.6,15.6,0,0,0-.53-2.44,1.8,1.8,0,0,0-.81-1,30.75,30.75,0,0,0-3.2-1.32,1.22,1.22,0,0,0-.91.12c-.77.44-1.51,1-2.26,1.43-1.24.79-1.79.77-2.82-.25-.87-.85-1.64-1.8-2.47-2.69a1,1,0,0,1-.11-1.35c.42-.68.81-1.38,1.29-2a2.9,2.9,0,0,0,.34-3.23c-1.35-3-.91-2.61-4-3.19-1.83-.35-2.07-.53-2.15-2.38,0-1.11,0-2.24.06-3.36a1.24,1.24,0,0,1,1.1-1.33c.82-.19,1.64-.33,2.47-.47a2.41,2.41,0,0,0,1.94-1.5c.28-.66.57-1.32.84-2a2.19,2.19,0,0,0-.2-2.07c-.55-.88-1.07-1.79-1.61-2.69a1,1,0,0,1,.15-1.35c1.11-1.09,2.23-2.18,3.4-3.21a1.07,1.07,0,0,1,.93-.08,10.58,10.58,0,0,1,1.52.89c.42.27.82.56,1.23.83a2.13,2.13,0,0,0,2,.22c.93-.34,1.83-.74,2.73-1.14a1.8,1.8,0,0,0,1-1.42c.18-1,.43-1.92.65-2.89a.88.88,0,0,1,.9-.73c1.53,0,3.07,0,4.61,0a1.08,1.08,0,0,1,1.13,1c.2.89.42,1.78.57,2.68a2,2,0,0,0,1.31,1.71c.93.37,1.84.81,2.78,1.15a1.22,1.22,0,0,0,.9-.09c.91-.52,1.77-1.12,2.67-1.65,1.07-.63,1.24-.64,2.16.2a31.72,31.72,0,0,1,2.46,2.46,1.64,1.64,0,0,1,.17,2.33c-.52.86-1.08,1.7-1.63,2.55a1.1,1.1,0,0,0-.11,1.13c.44,1,.84,2.08,1.34,3.08a1.58,1.58,0,0,0,.89.69,24.21,24.21,0,0,0,2.39.52c1.44.28,1.89.77,1.93,2.23,0,1,0,2.05,0,3.08s-.41,1.55-1.53,1.79c-.77.16-1.53.29-2.3.43a2.15,2.15,0,0,0-1.74,1.31c-.41,1-.82,1.93-1.15,2.91a1.3,1.3,0,0,0,.13,1c.48.86,1.07,1.66,1.57,2.51.6,1,.59,1.28-.21,2.17a34.68,34.68,0,0,1-2.5,2.5c-.86.76-1.1.76-2.08.18-.74-.43-1.46-.9-2.15-1.39a2.1,2.1,0,0,0-2.25-.24l-2,.91a2.27,2.27,0,0,0-1.34,1.8c-.09.48-.16,1-.25,1.46-.19,1.05-.37,2.11-1.81,2.07Zm2.41-12.68a6.69,6.69,0,0,0,3.85-.8A8.82,8.82,0,1,0,188,137.13c-2.12,2.22-2.56,4.88-2.22,7.77a5,5,0,0,0,.47,1.75C188,150,190.48,152.06,194.66,151.84Z" fill="#fff"/><path d="M196.22,165h-4a2.29,2.29,0,0,1-2-2.18,15.19,15.19,0,0,0-.51-2.37,1.44,1.44,0,0,0-.56-.72,30.17,30.17,0,0,0-3.15-1.3.83.83,0,0,0-.49.08c-.52.29-1,.62-1.51.95l-.73.47c-1.46.93-2.26.85-3.45-.31-.53-.53-1-1.1-1.52-1.64-.31-.36-.63-.72-1-1.07a1.49,1.49,0,0,1-.17-2l.31-.5a15.22,15.22,0,0,1,1-1.55,2.4,2.4,0,0,0,.28-2.73l-.33-.75c-.76-1.7-.76-1.7-2.5-2l-.77-.14c-1.95-.37-2.46-.7-2.55-2.84,0-1.15,0-2.27.06-3.42a1.74,1.74,0,0,1,1.49-1.79c.73-.17,1.47-.3,2.2-.42l.29-.05a1.92,1.92,0,0,0,1.57-1.2l.09-.23c.26-.58.51-1.17.75-1.76a1.64,1.64,0,0,0-.17-1.61l-.92-1.54-.69-1.16a1.5,1.5,0,0,1,.23-2c1-1,2.21-2.15,3.41-3.22a1.54,1.54,0,0,1,1.47-.17,7.77,7.77,0,0,1,1.26.72l.33.21.63.42.6.41a1.68,1.68,0,0,0,1.53.18c.86-.33,1.7-.69,2.7-1.13a1.28,1.28,0,0,0,.72-1.06c.13-.69.3-1.37.46-2l.2-.86a1.39,1.39,0,0,1,1.38-1.12l3.45,0h1.17a1.58,1.58,0,0,1,1.62,1.38l.15.68c.16.67.31,1.35.43,2a1.51,1.51,0,0,0,1,1.33l1.15.49c.54.23,1.08.46,1.62.66a.72.72,0,0,0,.49-.06c.49-.28,1-.59,1.46-.9s.79-.5,1.2-.74c1.26-.75,1.67-.71,2.74.25.88.8,1.72,1.64,2.5,2.5a2.14,2.14,0,0,1,.23,2.93c-.47.77-1,1.52-1.45,2.28l-.19.28a.64.64,0,0,0-.08.66q.21.47.39.93c.3.71.6,1.44.95,2.12a1,1,0,0,0,.58.44,15.26,15.26,0,0,0,1.74.39l.61.12c1.67.33,2.28,1,2.33,2.7,0,1,0,2,0,3.12a2.06,2.06,0,0,1-1.93,2.26c-.67.14-1.35.26-2,.38l-.28.05a1.66,1.66,0,0,0-1.37,1c-.44,1-.82,1.94-1.14,2.87a.81.81,0,0,0,.09.55c.25.45.53.88.81,1.31s.52.79.76,1.2c.72,1.23.67,1.72-.27,2.76a33.68,33.68,0,0,1-2.54,2.53c-1,.9-1.48,1-2.67.24-.74-.44-1.47-.91-2.18-1.42a1.61,1.61,0,0,0-1.75-.18l-1,.42-1.07.48a1.83,1.83,0,0,0-1.06,1.43l-.12.72c0,.25-.08.5-.13.75C198.26,163.59,198,165,196.22,165Zm-3.93-1h3.85c.94,0,1.1-.43,1.32-1.65l.12-.74.12-.73a2.82,2.82,0,0,1,1.63-2.16l1.09-.49.94-.42a2.62,2.62,0,0,1,2.75.28c.68.49,1.39.95,2.11,1.37s.81.48,1.49-.12a33.72,33.72,0,0,0,2.47-2.46c.65-.72.64-.74.14-1.59-.23-.39-.48-.77-.73-1.16s-.58-.89-.84-1.36a1.83,1.83,0,0,1-.17-1.36c.33-1,.72-1.9,1.17-2.94a2.66,2.66,0,0,1,2.11-1.61l.29-.06c.66-.11,1.33-.23,2-.37.91-.19,1.11-.43,1.14-1.32,0-1,0-2.08,0-3,0-1.2-.31-1.51-1.53-1.75l-.6-.12a15.62,15.62,0,0,1-1.84-.41,2.11,2.11,0,0,1-1.19-1c-.36-.72-.67-1.46-1-2.19-.13-.3-.25-.61-.38-.91a1.61,1.61,0,0,1,.15-1.61l.19-.28c.49-.74,1-1.49,1.43-2.25s.45-1.11-.11-1.74a32.65,32.65,0,0,0-2.43-2.42c-.71-.65-.71-.65-1.56-.14-.4.23-.78.48-1.17.73s-1,.63-1.51.92a1.7,1.7,0,0,1-1.32.13c-.56-.21-1.12-.45-1.67-.68-.38-.17-.75-.33-1.13-.48a2.49,2.49,0,0,1-1.61-2.09c-.11-.66-.26-1.31-.41-2l-.16-.68c-.11-.5-.32-.62-.64-.6h-1.16l-3.44,0a.38.38,0,0,0-.42.35l-.21.86c-.16.67-.32,1.33-.44,2a2.25,2.25,0,0,1-1.3,1.79c-1,.45-1.87.82-2.76,1.15a2.64,2.64,0,0,1-2.42-.27c-.21-.13-.42-.28-.62-.42l-.61-.4-.34-.23a7.72,7.72,0,0,0-1.1-.63.63.63,0,0,0-.43,0c-1.17,1-2.3,2.14-3.36,3.18a.51.51,0,0,0-.07.73l.69,1.17c.3.51.6,1,.91,1.52A2.67,2.67,0,0,1,180,136c-.25.6-.5,1.19-.76,1.78l-.09.22a3,3,0,0,1-2.32,1.8l-.3,0c-.7.12-1.43.24-2.13.41-.54.12-.7.31-.72.86-.06,1.12-.1,2.22-.06,3.32.07,1.59.13,1.6,1.74,1.91l.75.13c2.16.39,2.31.51,3.24,2.6l.33.74a3.4,3.4,0,0,1-.39,3.74c-.35.46-.64.95-1,1.46l-.31.52a.51.51,0,0,0,0,.74c.34.35.66.72,1,1.08.48.54,1,1.09,1.48,1.59.85.84,1.13.87,2.2.19l.72-.47c.52-.34,1-.68,1.57-1a1.74,1.74,0,0,1,1.32-.15,33.07,33.07,0,0,1,3.25,1.34,2.37,2.37,0,0,1,1.07,1.31,15.68,15.68,0,0,1,.54,2.53C191.34,163.56,191.63,163.92,192.29,164Zm3-11.66-.58,0c-3.95.2-6.83-1.58-8.82-5.46a5.69,5.69,0,0,1-.52-1.92c-.4-3.48.35-6.08,2.36-8.18a9.21,9.21,0,0,1,8-2.8,9.34,9.34,0,0,1,3.12,17.49A6.77,6.77,0,0,1,195.24,152.36Zm-.58-1h0a6.06,6.06,0,0,0,3.57-.74A8.34,8.34,0,0,0,195.5,135a8.2,8.2,0,0,0-7.1,2.51c-1.79,1.86-2.45,4.2-2.09,7.37a4.94,4.94,0,0,0,.42,1.57c1.82,3.55,4.34,5.12,7.9,4.92Z" fill="#d1d3d4"/><path d="M214.19,133.1a2.69,2.69,0,0,1,.2-.51,6.16,6.16,0,0,1,.63-.8,2.91,2.91,0,0,0,.54-3.8,3.47,3.47,0,0,0-1.26-1.06,12.16,12.16,0,0,0-1.56-.7.74.74,0,0,1-.48-.82c.14-1,.27-2,.46-3a.9.9,0,0,1,.57-.52,6.07,6.07,0,0,1,1.35-.14,2.73,2.73,0,0,0,2.35-1.35,2.66,2.66,0,0,0,.23-3.23c-.87-1.49-.74-1.63.65-2.71.49-.39,1-.73,1.52-1.11a.57.57,0,0,1,.82,0c.53.46,1.08.89,1.62,1.35a1.66,1.66,0,0,0,1.49.39c.37-.07.74-.17,1.11-.25a2.29,2.29,0,0,0,1.85-1.78c.63-2.22,1-1.89,2.62-1.63.54.09,1.08.24,1.62.34a.78.78,0,0,1,.71.75c.06.72.17,1.44.22,2.16a1.07,1.07,0,0,0,.55,1c2.28,1.43,2.05,1.45,4.34.36.84-.4,1.11-.34,1.69.35s1,1.3,1.48,2a.78.78,0,0,1,0,1.08c-.54.66-1.09,1.32-1.6,2a1,1,0,0,0-.17.69c.12.61.31,1.21.48,1.82a1.68,1.68,0,0,0,1.22,1.23,8.47,8.47,0,0,1,1.67.71,1.09,1.09,0,0,1,.47.81,25.79,25.79,0,0,1-.31,2.77,1,1,0,0,1-1,.87,2.68,2.68,0,0,1-.4,0,3.35,3.35,0,0,0-3.45,2.19,1.92,1.92,0,0,0-.1,1.7l.66,1.51a1,1,0,0,1-.31,1.35c-.71.52-1.41,1.05-2.1,1.58a.78.78,0,0,1-1.12-.07c-.47-.41-1-.81-1.42-1.23a1.52,1.52,0,0,0-1.42-.43,12.36,12.36,0,0,0-1.81.48,1.61,1.61,0,0,0-.75.71,7.26,7.26,0,0,0-.54,1.5,1.26,1.26,0,0,1-1.38,1.08c-.92-.1-1.84-.3-2.75-.46a.77.77,0,0,1-.68-.79c0-.44-.06-.87-.1-1.31a4.07,4.07,0,0,0-.08-.79,3.33,3.33,0,0,0-4-1.83c-.48.24-.93.52-1.42.72a.83.83,0,0,1-.68,0,7.36,7.36,0,0,1-2.14-2.85A1.6,1.6,0,0,1,214.19,133.1Zm12.9-1a6,6,0,0,0,5.91-5.94,6.09,6.09,0,0,0-6-6.16,6.17,6.17,0,0,0-6,6.18A6,6,0,0,0,227.09,132.08Z" fill="#fff"/><path d="M226.24,141.26H226c-.66-.08-1.32-.2-2-.32l-.82-.14a1.28,1.28,0,0,1-1.09-1.25l-.06-.79L222,138a2.63,2.63,0,0,0,0-.49,2.88,2.88,0,0,0-3.26-1.5l-.49.26a9.6,9.6,0,0,1-1,.47,1.27,1.27,0,0,1-1.18-.12,7.73,7.73,0,0,1-2.28-3,1.29,1.29,0,0,1-.08-.28l0-.1a.51.51,0,0,1,0-.3l.05-.13a1.59,1.59,0,0,1,.21-.47,6.45,6.45,0,0,1,.68-.88,2.43,2.43,0,0,0,.47-3.2,3.18,3.18,0,0,0-1.07-.87,6.75,6.75,0,0,0-1-.46l-.54-.23a1.21,1.21,0,0,1-.77-1.34l.07-.56c.12-.8.23-1.63.39-2.45a1.39,1.39,0,0,1,.93-.91,6.38,6.38,0,0,1,1.47-.15,2.21,2.21,0,0,0,2-1.13,2.16,2.16,0,0,0,.2-2.69c-1-1.74-.77-2.16.78-3.37.29-.22.59-.43.89-.64l.65-.47a1.06,1.06,0,0,1,1.44.07l.89.74.72.61a1.21,1.21,0,0,0,1.07.28l.57-.13.54-.12A1.81,1.81,0,0,0,225.8,113c.63-2.23,1.26-2.33,2.76-2.06l.42.08c.32,0,.64.12,1,.2l.67.14a1.26,1.26,0,0,1,1.12,1.2c0,.3.06.6.09.89s.1.85.13,1.28a.6.6,0,0,0,.32.57l.39.24c1.56,1,1.56,1,3.24.2l.23-.11a1.56,1.56,0,0,1,2.29.48c.37.44.72.91,1.06,1.38l.43.59a1.28,1.28,0,0,1,0,1.7l-.07.09c-.52.62-1,1.25-1.52,1.9a.55.55,0,0,0-.08.29c.09.45.22.89.34,1.33l.13.46a1.2,1.2,0,0,0,.89.89,8,8,0,0,1,1.77.75,1.58,1.58,0,0,1,.72,1.26c0,.93-.17,1.83-.31,2.83a1.45,1.45,0,0,1-1.52,1.29h-.12a1.82,1.82,0,0,1-.33,0,2.84,2.84,0,0,0-3,1.91,1.4,1.4,0,0,0-.09,1.28l.18.42.48,1.09a1.49,1.49,0,0,1-.48,2c-.7.51-1.39,1-2.08,1.56a1.28,1.28,0,0,1-1.76-.08l-.58-.51c-.29-.24-.58-.48-.85-.74a1,1,0,0,0-1-.3l-.28.06a9.17,9.17,0,0,0-1.46.4,1.13,1.13,0,0,0-.49.48,6.89,6.89,0,0,0-.5,1.39A1.75,1.75,0,0,1,226.24,141.26Zm-6.88-6.36a4.1,4.1,0,0,1,1.68.39,3.31,3.31,0,0,1,1.92,2,3.47,3.47,0,0,1,.08.68l.05.74c0,.25,0,.51.06.76s.12.33.26.35l.83.15c.62.11,1.26.23,1.89.3.16,0,.63.07.85-.71a7.79,7.79,0,0,1,.57-1.6,2.06,2.06,0,0,1,1-.94,9.15,9.15,0,0,1,1.61-.44l.28-.07a2,2,0,0,1,1.86.55c.26.24.54.48.81.71l.6.52c.23.2.32.17.49,0,.69-.53,1.39-1.06,2.1-1.58.25-.18.34-.34.16-.74s-.33-.74-.48-1.1l-.19-.42a2.41,2.41,0,0,1,.11-2.12,3.84,3.84,0,0,1,3.94-2.47.43.43,0,0,0,.16,0h.19c.4,0,.51-.18.55-.44.14-1,.26-1.84.3-2.72a.59.59,0,0,0-.23-.36,7.51,7.51,0,0,0-1.57-.66,2.21,2.21,0,0,1-1.55-1.58l-.12-.45c-.13-.47-.27-.93-.36-1.41a1.5,1.5,0,0,1,.26-1.08c.49-.66,1-1.3,1.54-1.94l.08-.09a.3.3,0,0,0,0-.46l-.44-.6c-.33-.45-.66-.9-1-1.33s-.46-.52-1.09-.22l-.23.11c-2.07,1-2.27,1-4.21-.25l-.38-.25a1.56,1.56,0,0,1-.79-1.35c0-.41-.07-.81-.12-1.22s-.07-.62-.1-.92,0-.26-.31-.31-.47-.09-.7-.15-.6-.13-.9-.18l-.45-.08c-1.12-.21-1.17-.22-1.61,1.34a2.79,2.79,0,0,1-2.23,2.14l-.51.12-.6.13a2.14,2.14,0,0,1-1.91-.5l-.72-.59-.91-.76c-.06-.06-.1-.07-.1-.08s0,0-.09,0l-.67.49c-.29.2-.57.4-.84.61-1.2.93-1.2.93-.53,2.07a3.18,3.18,0,0,1-.24,3.76,3.21,3.21,0,0,1-2.76,1.57,5.73,5.73,0,0,0-1.24.12.58.58,0,0,0-.21.17c-.14.75-.26,1.57-.37,2.36l-.07.56c0,.11,0,.2.19.29l.5.21a7.42,7.42,0,0,1,1.11.52,3.87,3.87,0,0,1,1.44,1.25,3.4,3.4,0,0,1-.61,4.39,4.89,4.89,0,0,0-.58.73,1.38,1.38,0,0,0-.09.23v0s0,.06,0,.08a6.83,6.83,0,0,0,2,2.65l.18,0c.3-.12.58-.27.87-.42l.52-.28A2.44,2.44,0,0,1,219.36,134.9Zm7.75-2.32h0a6.5,6.5,0,0,1-4.72-11.12,6.72,6.72,0,0,1,4.6-2,6.61,6.61,0,0,1,6.54,6.66A6.46,6.46,0,0,1,227.11,132.58Zm0-1h0a5.45,5.45,0,0,0,5.39-5.45,5.62,5.62,0,0,0-5.55-5.65h0a5.55,5.55,0,1,0,.19,11.1Z" fill="#d1d3d4"/><rect x="107.37" y="220.53" width="185.27" height="48.16" rx="8.75" fill="#fff"/><path d="M283.89,269.18H116.11a9.24,9.24,0,0,1-9.24-9.24V229.27a9.24,9.24,0,0,1,9.24-9.24H283.89a9.24,9.24,0,0,1,9.24,9.24v30.67A9.24,9.24,0,0,1,283.89,269.18ZM116.11,221a8.25,8.25,0,0,0-8.24,8.24v30.67a8.25,8.25,0,0,0,8.24,8.24H283.89a8.25,8.25,0,0,0,8.24-8.24V229.27a8.25,8.25,0,0,0-8.24-8.24Z" fill="#231f20"/><path d="M127.35,215.22a9.87,9.87,0,0,0-1.14-5.36,39.42,39.42,0,0,1-2.4-3.4c-1-2.17-.31-4.74-.55-7.13a8.92,8.92,0,0,0-2.5-5.31c-1.25-1.27-2.86-2.13-4.06-3.45-2-2.16-2.52-5.2-3.63-7.9a19.71,19.71,0,0,0-7.83-9.21c2.14,4.29-2.73,9.75-.52,14,.7,1.36,2,2.34,2.54,3.77,1.24,3.46-2.88,7.2-1.56,10.62.66,1.72,2.49,2.71,3.34,4.33,1.15,2.19.25,4.84.34,7.31.13,3.41,2.21,6.46,4.67,8.82,1.53,1.47,3.24,2.74,4.9,4.07,2,1.58,2.82,3.25,4.56.7A21.9,21.9,0,0,0,127.35,215.22Z" fill="#231f20"/><path d="M129.56,217.17c-.63-2.64-1.09-5.5,0-8,1.22-2.81,4.25-4.8,4.6-7.85.24-2-.78-4-.38-6s2-3.31,3.34-4.76a20,20,0,0,0,5.14-12.19,30.23,30.23,0,0,1,4.9,8.11c1.05,3,1.07,6.52-.71,9.14a7.91,7.91,0,0,0-1.24,2c-.6,1.94,1.06,3.76,1.92,5.6a6.44,6.44,0,0,1-.61,6.61c-1.74,2.17-5.1,3-5.95,5.66a13.09,13.09,0,0,0-.3,3,8.81,8.81,0,0,1-6.35,7.56c-2.06.5-2-.32-2.39-2.05C131,221.74,130.12,219.49,129.56,217.17Z" fill="#231f20"/><path d="M123,198.2c-1.46-5.06-2-10.35-3.59-15.39a86,86,0,0,0-4.79-11.49L120.9,174c2,.85,4.19,1.85,5.14,3.82,1.66,3.43-1.31,7.82.43,11.21a28.38,28.38,0,0,0,2.48,3.13c1.85,2.59,1.57,6.17.55,9.19-.43,1.29-2.34,8-4,6.15-.68-.75-.74-3.53-1-4.55C124,201.33,123.46,199.78,123,198.2Z" fill="#231f20"/><path d="M126.48,265.49c-1.25-8.28-5.18-37.46-5.22-37.75l1-.14c0,.3,4,29.47,5.21,37.74Z" fill="#231f20"/><path d="M127.87,273.32h-1c.07-9.83,4.16-47.38,6.52-49.95l.74.67C132.56,225.74,128,259.85,127.87,273.32Z" fill="#231f20"/><path d="M130,271.44l-1-.05c.93-21.19-3.56-65.71-3.61-66.15l1-.11C126.43,205.58,130.94,250.17,130,271.44Z" fill="#231f20"/><path d="M115.67,241.77h23.39l-1.64,26.56c-.28,4.6-3.69,8.16-7.79,8.16H125.1c-4.1,0-7.51-3.56-7.79-8.16Z" fill="#fff"/><path d="M129.63,277H125.1c-4.36,0-8-3.8-8.31-8.64l-1.63-26.57a.49.49,0,0,1,.14-.38.51.51,0,0,1,.37-.16h23.39a.55.55,0,0,1,.38.16.57.57,0,0,1,.14.38l-1.64,26.57C137.64,273.21,134,277,129.63,277Zm-13.41-34.72,1.6,26c.27,4.31,3.47,7.68,7.28,7.68h4.53c3.81,0,7-3.37,7.28-7.68l1.6-26Z" fill="#231f20"/><path d="M136.82,250.31H117.88a.51.51,0,0,1-.5-.5.5.5,0,0,1,.5-.5h18.94a.5.5,0,0,1,.5.5A.51.51,0,0,1,136.82,250.31Z" fill="#d1d3d4"/><path d="M187.1,263.05a5.94,5.94,0,0,1-3.33,1.63c-1.48,0-17.42-2.94-18.08-.76s.64,3.28,4.46,5.07c5.1,2.41,22.25,8.06,22.25,8.06l3.75-8.82Z" fill="#fff"/><path d="M192.4,277.5a.39.39,0,0,1-.15,0c-.7-.23-17.23-5.68-22.3-8.07-3.88-1.83-5.47-3.08-4.7-5.63.52-1.69,5.78-1.29,15.31.05,1.54.21,2.85.39,3.19.39a5.49,5.49,0,0,0,3-1.47.46.46,0,0,1,.57-.09l9,5.17a.47.47,0,0,1,.19.58l-3.75,8.81A.46.46,0,0,1,192.4,277.5Zm-23.86-13.95c-1.51,0-2.31.17-2.41.5-.54,1.77.33,2.7,4.21,4.53,4.59,2.17,19.2,7,21.8,7.9l3.43-8.05-8.4-4.81a6.18,6.18,0,0,1-3.39,1.51c-.38,0-1.41-.13-3.34-.4A101,101,0,0,0,168.54,263.55Z" fill="#231f20"/><path d="M236.68,272.51s-17.1,5.87-17.83,7,.57,2.43,5.11,2.83,24-.65,24-.65.24-5.27-1-7.95S236.68,272.51,236.68,272.51Z" fill="#fff"/><path d="M227.22,282.88c-1.4,0-2.54,0-3.3-.09-3.12-.28-5-1-5.57-2.09a1.41,1.41,0,0,1,.12-1.45c.75-1.16,14-5.78,18.06-7.17l.07,0c1-.16,9.51-1.44,10.84,1.48,1.25,2.75,1,7.94,1,8.16a.45.45,0,0,1-.43.44C247.36,282.18,234.2,282.88,227.22,282.88Zm9.57-9.93c-8,2.76-16.92,6.09-17.57,6.82a.48.48,0,0,0-.05.53c.28.58,1.7,1.3,4.83,1.58,4.1.36,20.69-.48,23.55-.63,0-1.28,0-5.21-.94-7.33C245.83,272.2,240.19,272.42,236.79,273Z" fill="#231f20"/><path d="M281,216.83S295,182,293.49,164.77s-12.73-18.25-16.63-18.49-24.6-3-32.15,6.25-5.6,53.82-5.6,53.82Z" fill="#8168fd"/><polygon points="256.38 154.22 258.16 182.73 271.47 151.87 256.38 154.22" fill="#231f20"/><path d="M258.16,183.23h-.08a.51.51,0,0,1-.42-.47l-1.78-28.51a.49.49,0,0,1,.42-.53l15.09-2.35a.51.51,0,0,1,.54.7l-13.31,30.86A.49.49,0,0,1,258.16,183.23Zm-1.26-28.59,1.63,26,12.12-28.12Z" fill="#231f20"/><path d="M238.25,197.52A120.57,120.57,0,0,0,206,212.44c-7,4.75-20.05,51.32-20.05,51.32s1.46,8.06,10.78,6.8L237.4,217.8S246.14,197.32,238.25,197.52Z" fill="#231f20"/><path d="M194.78,271.19a9.31,9.31,0,0,1-9.36-7.35.55.55,0,0,1,0-.22c.53-1.91,13.18-46.8,20.25-51.6,15.14-10.27,32.27-14.93,32.44-15a1,1,0,0,1,.25,0,3.18,3.18,0,0,1,2.81,1.4c3.06,4.5-3.06,19-3.32,19.58a.6.6,0,0,1-.06.11l-40.72,52.75a.49.49,0,0,1-.33.19A13.72,13.72,0,0,1,194.78,271.19Zm-8.36-7.42c.22,1,1.93,7.3,10,6.32L237,217.55c1.73-4.09,5.66-15.22,3.39-18.57a2.32,2.32,0,0,0-2-1c-1.1.31-17.52,4.95-32.08,14.83C199.64,217.33,187.16,261.18,186.42,263.77Z" fill="#231f20"/><path d="M281,216.83s-32.29-13.14-40.58-14.36c0,0-11.84,4.42-17.93,15.62s14.19,54.42,14.19,54.42a16,16,0,0,0,11.07,1.95l.17-48.07S282,228.76,281,216.83Z" fill="#231f20"/><path d="M244.8,275.24a16.09,16.09,0,0,1-8.4-2.32.49.49,0,0,1-.18-.2c-.83-1.77-20.31-43.57-14.17-54.87s18.08-15.8,18.2-15.85a.42.42,0,0,1,.25,0c8.24,1.21,39.37,13.85,40.69,14.38a.54.54,0,0,1,.31.43,5.93,5.93,0,0,1-1.82,4.83c-6.36,6.44-27.52,5.52-31.26,5.3l-.17,47.54a.5.5,0,0,1-.4.49A16.6,16.6,0,0,1,244.8,275.24Zm-7.73-3.08A15.68,15.68,0,0,0,247.25,274l.17-47.66a.5.5,0,0,1,.16-.36.53.53,0,0,1,.38-.13c.24,0,24.49,1.62,31-5a4.94,4.94,0,0,0,1.55-3.75c-3.24-1.31-32.14-12.94-40-14.18-1.24.49-11.94,5-17.55,15.34C217.2,228.88,235.84,269.51,237.07,272.16Z" fill="#231f20"/><path d="M223.23,236.76a.49.49,0,0,1-.49-.41c-.3-1.69-2.84-16.61-.62-19.06,4.77-5.25,16.5-13.93,16.61-14a.51.51,0,0,1,.7.11.49.49,0,0,1-.1.69c-.12.09-11.77,8.72-16.47,13.89-1.43,1.57-.23,12,.86,18.21a.49.49,0,0,1-.4.58Z" fill="#fff"/><path d="M244.71,152.53s-5.59,10.74-8.88,16.26-10.45,13.44-10.45,13.44-25.32,9-25.49,9.49,2.4,9,2.4,9,26.59-1.91,31-4,13.32-12.3,13.32-12.3Z" fill="#8168fd"/><path d="M272.39,118.14a6.2,6.2,0,0,0-1.58-.39c-2.14-.25-2.18.21-3.84-1.18a15.63,15.63,0,0,0-8.77-3.34c-6.16-.41-10.65,2.68-9.24,9.44a19.79,19.79,0,0,0,3.6,7.37c3.48,4.82,8.4,9.19,14.33,9.64,1.76.13,5.07,0,6.34-1.44A16,16,0,0,0,276.49,123a9.06,9.06,0,0,0-1.6-3.08A6.28,6.28,0,0,0,272.39,118.14Z" fill="#fff"/><path d="M267.94,140.22c-.55,0-.95,0-1.09,0-6.63-.5-11.65-5.63-14.69-9.85a19.75,19.75,0,0,1-3.69-7.56c-.63-3-.14-5.56,1.4-7.34,1.73-2,4.7-2.94,8.36-2.7a16,16,0,0,1,9.06,3.46c1.1.92,1.32.93,2.23,1,.35,0,.78,0,1.35.1a7.17,7.17,0,0,1,1.7.42,6.77,6.77,0,0,1,2.7,1.9,9.29,9.29,0,0,1,1.69,3.25,16.4,16.4,0,0,1-3.36,15.76C272.32,140,269.52,140.22,267.94,140.22Zm-10.8-26.53c-2.87,0-5.15.84-6.51,2.4s-1.75,3.78-1.18,6.48a18.75,18.75,0,0,0,3.52,7.17c2.92,4,7.71,9,14,9.44,2.16.17,4.93-.16,5.93-1.27A15.41,15.41,0,0,0,276,123.12a8.44,8.44,0,0,0-1.5-2.91,5.74,5.74,0,0,0-2.3-1.61h0a6.12,6.12,0,0,0-1.46-.36c-.54-.06-.94-.08-1.27-.09a3.66,3.66,0,0,1-2.83-1.19,15.1,15.1,0,0,0-8.49-3.23C257.81,113.7,257.47,113.69,257.14,113.69Z" fill="#231f20"/><path d="M256.38,144.92v9.3a6.81,6.81,0,0,0,8.26,3.57c6.08-1.55,6.83-5.92,6.83-5.92l-.28-17.21s-4.55-2.36-3.34-12.2A30.17,30.17,0,0,1,252,124.85s-1.87,10.76-1.21,15.5S256.29,144.85,256.38,144.92Z" fill="#fff"/><path d="M262.45,158.58a7.32,7.32,0,0,1-6.53-4.17.43.43,0,0,1,0-.19v-8.85c-3.2-.38-5.17-2.13-5.56-5-.65-4.76,1.14-15.21,1.21-15.65a.5.5,0,0,1,.55-.41A29.9,29.9,0,0,0,267.62,122a.51.51,0,0,1,.73.51c-1.15,9.31,3,11.67,3.07,11.69a.52.52,0,0,1,.27.44l.28,17.21c0,.28-.88,4.8-7.21,6.41A9.09,9.09,0,0,1,262.45,158.58Zm-5.57-4.47c.31.66,2.41,4.52,7.63,3.19,5.71-1.45,6.46-5.47,6.46-5.52l-.27-16.84c-1-.67-4.2-3.54-3.44-11.66a31.12,31.12,0,0,1-14.82,2.12c-.34,2.1-1.69,10.82-1.13,14.88.34,2.44,2.05,3.86,4.94,4.12a.74.74,0,0,1,.44.13.49.49,0,0,1,.19.39Z" fill="#231f20"/><path d="M267.61,134.4a4.06,4.06,0,0,1,1.33-2.15,7.25,7.25,0,0,1,2.12-1.1,3.06,3.06,0,0,1,1.29-.25,2.45,2.45,0,0,1,.87.31,3.12,3.12,0,0,1,1.49,1.53,3.65,3.65,0,0,1,.1,1.74,7.43,7.43,0,0,1-.45,1.86,4.82,4.82,0,0,1-6.37,2.59" fill="#fff"/><path d="M269.9,139.82a5.31,5.31,0,0,1-2.11-.43.49.49,0,0,1-.26-.65.5.5,0,0,1,.66-.26,4.49,4.49,0,0,0,3.34,0,4.42,4.42,0,0,0,2.37-2.36,6.88,6.88,0,0,0,.41-1.73,3.18,3.18,0,0,0-.07-1.51,2.65,2.65,0,0,0-1.26-1.26,1.88,1.88,0,0,0-.69-.25,2.64,2.64,0,0,0-1.05.22,6.43,6.43,0,0,0-2,1,3.45,3.45,0,0,0-1.16,1.87.5.5,0,0,1-.6.38.51.51,0,0,1-.38-.6,4.5,4.5,0,0,1,1.5-2.42,7.41,7.41,0,0,1,2.27-1.19,3.33,3.33,0,0,1,1.51-.27,2.93,2.93,0,0,1,1.06.36,3.53,3.53,0,0,1,1.72,1.79,4.08,4.08,0,0,1,.12,2,7.44,7.44,0,0,1-.48,2,5.3,5.3,0,0,1-4.92,3.29Z" fill="#231f20"/><path d="M258.75,131s-3.3,4.7-2.57,5.55,2.88.34,2.88.34" fill="#fff"/><path d="M257.77,137.58a2.56,2.56,0,0,1-2-.67c-.83-.94.92-3.87,2.53-6.16a.52.52,0,0,1,.7-.12.5.5,0,0,1,.12.7c-1.53,2.17-2.73,4.49-2.58,5,.39.43,1.77.3,2.37.16a.5.5,0,0,1,.23,1A6.73,6.73,0,0,1,257.77,137.58Z" fill="#231f20"/><ellipse cx="264.15" cy="130.66" rx="0.79" ry="1.11" transform="translate(-7.54 16.5) rotate(-3.53)" fill="#231f20"/><ellipse cx="256.08" cy="130.66" rx="1.11" ry="0.79" transform="translate(107.78 376.94) rotate(-85.98)" fill="#231f20"/><path d="M261.22,139l-6.08-.38s-.48,4,2.43,4.06S261.22,139,261.22,139Z" fill="#231f20"/><path d="M257.67,143.16h-.12a2.7,2.7,0,0,1-2-.93,5.42,5.42,0,0,1-.87-3.69.51.51,0,0,1,.53-.44l6.08.38a.52.52,0,0,1,.36.19.53.53,0,0,1,.1.4C261.43,140.5,260.23,143.16,257.67,143.16Zm-2.06-4a3.87,3.87,0,0,0,.66,2.45,1.69,1.69,0,0,0,1.32.58c1.83,0,2.68-1.77,3-2.72Z" fill="#231f20"/><path d="M252.65,136a6,6,0,1,1,1-.09A6,6,0,0,1,252.65,136Zm0-11a5.1,5.1,0,0,0-.87.07,5.09,5.09,0,1,0,.87-.07Z" fill="#231f20"/><path d="M264.13,135.55a6,6,0,1,1,5.91-7h0a6,6,0,0,1-4.86,6.93A6.2,6.2,0,0,1,264.13,135.55Zm0-11a5,5,0,0,0-4.91,5.84,5,5,0,1,0,9.81-1.72h0A5,5,0,0,0,264.15,124.58Z" fill="#231f20"/><path d="M256.38,144.92s5.78,1.34,9.19-.61c0,0-3.77,7.79-9.19,7Z" fill="#231f20"/><path d="M257.18,151.85a6.62,6.62,0,0,1-.88-.06.51.51,0,0,1-.42-.5v-6.37a.5.5,0,0,1,.61-.49c.05,0,5.63,1.27,8.83-.55a.5.5,0,0,1,.59.06.52.52,0,0,1,.11.59C265.87,144.84,262.41,151.85,257.18,151.85Zm-.3-1c3.49.2,6.27-3.47,7.52-5.49a16.92,16.92,0,0,1-7.52.18Z" fill="#231f20"/><path d="M287.88,150.48c4.73.84,23.88,45.12,17.32,50.18-10.23,7.89-45.84-.09-45.84-.09l2.91-13.73s22.89.63,23.22-4.07S272.17,156.31,274,153.06,287.88,150.48,287.88,150.48Z" fill="#8168fd"/><path d="M276.69,205.19h-.09l-11.12-1.91a.52.52,0,0,1-.41-.48l-.36-13.32a.5.5,0,0,1,.45-.51l20-2.06-8.8-30.35a.5.5,0,0,1,1-.28l9,30.92a.48.48,0,0,1-.07.42.51.51,0,0,1-.36.22l-20.16,2.08.34,12.44,10.71,1.84a.5.5,0,0,1-.08,1Z" fill="#231f20"/><path d="M264.73,191.44a52.26,52.26,0,0,1-11.39-.56,35.05,35.05,0,0,0-8.51-1,32.11,32.11,0,0,0-11,2.5.81.81,0,0,0-.37.25c-.34.47.46.93,1,.94A15,15,0,0,0,239,193a42.75,42.75,0,0,0-10.12,5.38c-.36.25-.75.66-.58,1.06s.9.33,1.37.11l8.19-3.74a20.52,20.52,0,0,0-5.82,3.53c-.24.22-.51.51-.44.83.12.55.94.44,1.44.19a48.26,48.26,0,0,0,7.11-4.34l-5.06,3.87c-.06.41.38.76.79.78a2.29,2.29,0,0,0,1.17-.41L242.7,197l-3.52,2.47c-.55.38-1.18,1-.91,1.62s1.4.51,2.13.18a42.6,42.6,0,0,1,9-2.78,14.14,14.14,0,0,1,3.35-.68,28.59,28.59,0,0,1,5.14,1.12c2.55.57,5.09,1.16,7.64,1.75" fill="#fff"/><path d="M239.15,202.08a1.57,1.57,0,0,1-.61-.11,1.22,1.22,0,0,1-.69-.65,1.28,1.28,0,0,1,0-.94l-.54.31a2.75,2.75,0,0,1-1.41.47,1.35,1.35,0,0,1-1-.47,1,1,0,0,1-.25-.6c-.46.25-.93.49-1.39.72a2,2,0,0,1-1.59.13.88.88,0,0,1-.51-.64,1.17,1.17,0,0,1,.37-1.05l-1.66.76a2,2,0,0,1-1.43.16.91.91,0,0,1-.54-.51c-.24-.53,0-1.12.72-1.61a42.83,42.83,0,0,1,6.79-4h-.88a1.8,1.8,0,0,1-1.48-.8.83.83,0,0,1,.07-.86,1.25,1.25,0,0,1,.57-.41,32.31,32.31,0,0,1,11.12-2.54,30.11,30.11,0,0,1,7.57.79l1,.2a52.48,52.48,0,0,0,11.29.54.47.47,0,0,1,.47.44.47.47,0,0,1-.44.48,53.9,53.9,0,0,1-11.49-.57l-1-.19a29.64,29.64,0,0,0-7.35-.78,31.49,31.49,0,0,0-10.81,2.47l-.18.09a1.45,1.45,0,0,0,.68.22,14.44,14.44,0,0,0,4.34-.54.45.45,0,0,1,.28.86,42.85,42.85,0,0,0-10,5.33c-.34.25-.44.45-.42.5a1,1,0,0,0,.76-.11l6.33-2.9c.61-.32,1.24-.6,1.88-.86a.46.46,0,0,1,.36.84l-1.84.84a20.16,20.16,0,0,0-3.87,2.63c-.31.27-.3.37-.3.38a1.07,1.07,0,0,0,.8-.12,47.33,47.33,0,0,0,7-4.3.46.46,0,0,1,.55.73l-4.83,3.7a.51.51,0,0,0,.3.13,1.74,1.74,0,0,0,.92-.35l5.64-3.25a.45.45,0,0,1,.61.14.46.46,0,0,1-.12.62l-3.52,2.47c-.45.32-.88.77-.75,1.07a.33.33,0,0,0,.18.17,2.05,2.05,0,0,0,1.34-.23,43.09,43.09,0,0,1,9.14-2.81c.37-.08.72-.18,1.08-.28a8.08,8.08,0,0,1,2.38-.41,16,16,0,0,1,3.66.73c.54.14,1.06.29,1.56.4,2.55.58,5.1,1.16,7.64,1.76a.45.45,0,0,1,.34.55.46.46,0,0,1-.55.34c-2.54-.6-5.08-1.18-7.63-1.76-.52-.11-1.05-.26-1.6-.41a14.75,14.75,0,0,0-3.45-.69,7.15,7.15,0,0,0-2.1.37c-.38.11-.76.21-1.15.29a42.23,42.23,0,0,0-8.95,2.76A3.76,3.76,0,0,1,239.15,202.08Z" fill="#231f20"/><path d="M249.52,158.08s-4.19,17.1-8,29.25" fill="#fff"/><path d="M241.56,187.79l-.14,0a.46.46,0,0,1-.3-.57c3.73-12,7.92-29.06,8-29.23a.46.46,0,0,1,.55-.33.45.45,0,0,1,.34.55c-.05.17-4.24,17.25-8,29.28A.48.48,0,0,1,241.56,187.79Z" fill="#231f20"/><polygon points="199.25 207.96 199.47 210.35 253.34 218.23 252.79 215.72 199.25 207.96" fill="#fff"/><path d="M253.34,218.73h-.08l-53.87-7.87a.5.5,0,0,1-.42-.45l-.22-2.39a.48.48,0,0,1,.16-.41.45.45,0,0,1,.41-.13l53.55,7.75a.5.5,0,0,1,.41.39l.55,2.51a.53.53,0,0,1-.13.45A.5.5,0,0,1,253.34,218.73Zm-53.41-8.81,52.77,7.71-.32-1.47-52.58-7.61Z" fill="#231f20"/><path d="M199.25,208s12.26-10.51,12.67-10.42,55.51,6.7,55.51,6.7l-14.64,11.48Z" fill="#fff"/><path d="M252.79,216.22h-.07l-53.54-7.75a.49.49,0,0,1-.41-.36.51.51,0,0,1,.15-.52C211.38,196.9,211.73,197,212,197.06c.7.12,36.58,4.42,55.45,6.68a.52.52,0,0,1,.42.36.51.51,0,0,1-.18.53L253.1,216.11A.51.51,0,0,1,252.79,216.22Zm-52.38-8.6,52.24,7.57,13.52-10.6c-11-1.32-51.11-6.12-54.18-6.53C211,198.66,204.75,203.92,200.41,207.62Z" fill="#231f20"/><polygon points="253.34 218.23 267.64 206.63 267.43 204.24 252.79 215.72 253.34 218.23" fill="#fff"/><path d="M253.34,218.73a.47.47,0,0,1-.17,0,.5.5,0,0,1-.32-.37l-.55-2.51a.5.5,0,0,1,.18-.5l14.64-11.47a.49.49,0,0,1,.8.34l.22,2.39a.5.5,0,0,1-.18.44l-14.31,11.6A.51.51,0,0,1,253.34,218.73Zm0-2.81.3,1.41,13.47-10.92L267,205.2Z" fill="#231f20"/><polygon points="199.25 207.96 188.9 173.27 245.68 182.95 252.79 215.72 199.25 207.96" fill="#fff"/><path d="M252.79,216.22h-.07l-53.54-7.75a.51.51,0,0,1-.41-.36l-10.35-34.68a.52.52,0,0,1,.1-.48.5.5,0,0,1,.46-.16l56.79,9.68a.49.49,0,0,1,.4.39l7.11,32.76a.49.49,0,0,1-.12.45A.52.52,0,0,1,252.79,216.22Zm-53.15-8.71,52.51,7.61-6.88-31.73-55.66-9.49Z" fill="#231f20"/><path d="M277.21,178.92h0l-11-1.13a.5.5,0,1,1,.1-1l11,1.13a.5.5,0,0,1,.45.55A.52.52,0,0,1,277.21,178.92Z" fill="#231f20"/><path d="M267.64,91.63a.49.49,0,0,1-.49-.41c-6.94-40.83-45.35-53.17-45.73-53.29a.51.51,0,0,1-.33-.63.5.5,0,0,1,.62-.33c.4.12,39.39,12.65,46.43,54.08a.51.51,0,0,1-.41.58Z" fill="#231f20"/><path d="M269.48,101.39a.49.49,0,0,1-.5-.45c-.19-1.92-.42-4.65-.42-4.65l1-.09s.24,2.72.42,4.64a.5.5,0,0,1-.44.55Z" fill="#231f20"/></g></svg>