<svg xmlns="http://www.w3.org/2000/svg" viewBox="0 0 400 300"><g id="_88_knowledge" data-name="#88_knowledge"><path d="M149.72,211.5C123.22,225,123.81,251,123.81,251L269.2,276.75s-2.44-13.58-37-38.5C202.68,217,166.33,203.05,149.72,211.5Z" fill="#8168fd"/><path d="M259.24,149.47s13.05,25.37,9.28,29.92-14.17.12-14.17.12" fill="#fff"/><path d="M263,182a26.23,26.23,0,0,1-8.88-2,.5.5,0,0,1,.39-.92c.11,0,10.1,4.23,13.59,0,2.93-3.53-5.75-22.4-9.34-29.37A.51.51,0,0,1,259,149a.5.5,0,0,1,.67.22c1.35,2.62,13.1,25.8,9.22,30.47C267.5,181.39,265.31,182,263,182Z" fill="#231f20"/><path d="M166.41,124.05c-4.35,23.32,11.23,65.21,11.23,65.21l-.46,42.06s3.7,7.65,22,15.77,24.57,1.17,24.57,1.17l.27-39.79c4.23,3.47,30,6.08,31.66-3.82q3.84-23.4,6.6-47c1.15-9.83,5-24.09-.32-33.64Z" fill="#fff"/><path d="M214.89,251.55c-3.84,0-9-1-15.88-4-18.29-8.11-22.12-15.69-22.28-16a.54.54,0,0,1,0-.22l.46-42c-.38-1-4.07-11.21-7.23-23.83-3.07-12.26-6.25-29.43-4-41.56a.5.5,0,0,1,.49-.41H262a.48.48,0,0,1,.43.26c4.38,7.87,2.65,19,1.26,27.89-.34,2.15-.66,4.18-.88,6.05-1.83,15.63-4,31.43-6.59,47-.42,2.57-2.33,4.52-5.68,5.78-7.73,2.91-21.43,1.4-26-1.12l-.25,38.87a.57.57,0,0,1-.13.33C224,248.78,221.38,251.55,214.89,251.55ZM177.68,231.2c.51.9,4.94,8,21.74,15.44,16.33,7.24,22.9,2.27,23.87,1.41l.26-39.58a.48.48,0,0,1,.29-.45.51.51,0,0,1,.53.06c2.94,2.42,17.61,4.58,25.8,1.49,3-1.12,4.69-2.81,5.05-5,2.55-15.53,4.76-31.32,6.59-46.94.22-1.89.54-3.93.88-6.09,1.35-8.66,3-19.43-1-27H166.83c-4,23,11.12,64.12,11.28,64.54a.52.52,0,0,1,0,.18Z" fill="#231f20"/><path d="M258.34,150H187.09a.5.5,0,0,1-.5-.5.5.5,0,0,1,.5-.5h71.25a.5.5,0,0,1,.5.5A.5.5,0,0,1,258.34,150Z" fill="#231f20"/><ellipse cx="252.6" cy="142.86" rx="1.75" ry="5.03" fill="#231f20"/><path d="M256.62,192.89s-13,6.17-18.11-7.14" fill="#fff"/><path d="M249.94,194.83a12.53,12.53,0,0,1-4.7-.87c-3.22-1.29-5.65-4-7.2-8a.5.5,0,0,1,.93-.36c1.45,3.77,3.68,6.28,6.64,7.46,5.11,2.05,10.74-.56,10.79-.59a.51.51,0,0,1,.67.24.5.5,0,0,1-.24.67A17.64,17.64,0,0,1,249.94,194.83Z" fill="#231f20"/><path d="M224.05,208.47a98.31,98.31,0,0,1-24.84-10s4.3,26.45,23.92,29.59Z" fill="#231f20"/><path d="M223.13,228.55h-.08c-19.74-3.15-24.29-29.74-24.33-30a.5.5,0,0,1,.75-.51A98.39,98.39,0,0,0,224.16,208a.5.5,0,0,1,.39.51l-.92,19.58a.53.53,0,0,1-.18.37A.52.52,0,0,1,223.13,228.55Zm-23.21-29.1c1.06,4.89,6.38,25,22.74,28l.87-18.6A100.68,100.68,0,0,1,199.92,199.45Z" fill="#231f20"/><path d="M166.41,124.05,99,73.69S77.79,104.62,103.26,129,166.41,124.05,166.41,124.05Z" fill="#231f20"/><path d="M127.48,139.12a34.38,34.38,0,0,1-24.57-9.76c-25.47-24.39-4.55-55.64-4.34-56a.52.52,0,0,1,.33-.21.47.47,0,0,1,.38.09l67.43,50.36a.5.5,0,0,1,0,.79C166.45,124.65,147.54,139.12,127.48,139.12ZM99.11,74.41c-2.4,3.84-18.74,32,4.49,54.23s57.33-1.2,62-4.59Z" fill="#231f20"/><path d="M177.64,189.26s13.09-26.74,20.13-29.45S214,124.05,214,124.05H166.41S155.07,154.78,177.64,189.26Z" fill="#231f20"/><path d="M177.64,189.76a.5.5,0,0,1-.42-.22c-22.44-34.3-11.39-65.35-11.27-65.66a.49.49,0,0,1,.46-.33H214a.48.48,0,0,1,.4.2.45.45,0,0,1,.08.43c-.38,1.36-9.36,33.33-16.55,36.09-6.78,2.61-19.73,28.95-19.86,29.21a.5.5,0,0,1-.42.28Zm-10.87-65.21c-1.1,3.37-9.51,32,10.81,63.7,2.27-4.54,13.47-26.4,20-28.91,6.2-2.39,14.45-30.21,15.77-34.79Z" fill="#231f20"/><path d="M208.14,158.14c.37-3.94-1.45-7.72-3.23-11.26a30.31,30.31,0,0,0-4.91-7.75c-2.13-2.22-5.13-3.81-8.19-3.51a9.62,9.62,0,0,0-6.69,4.2,18.24,18.24,0,0,0-2.82,7.58A33.91,33.91,0,0,0,194.59,179" fill="#fff"/><path d="M194.59,179.5a.5.5,0,0,1-.31-.1,34.59,34.59,0,0,1-12.47-32.08,18.58,18.58,0,0,1,2.9-7.79,10.19,10.19,0,0,1,7.06-4.41,10.73,10.73,0,0,1,8.59,3.66,30.82,30.82,0,0,1,5,7.88c1.64,3.26,3.67,7.32,3.27,11.53a.49.49,0,0,1-.54.45.5.5,0,0,1-.45-.54c.37-3.93-1.6-7.85-3.17-11a30.51,30.51,0,0,0-4.83-7.63,9.92,9.92,0,0,0-7.78-3.36,9.16,9.16,0,0,0-6.33,4,17.51,17.51,0,0,0-2.74,7.37,33.57,33.57,0,0,0,12.11,31.13.49.49,0,0,1,.08.7A.47.47,0,0,1,194.59,179.5Z" fill="#231f20"/><path d="M264.73,163.85c-3.86,0-6.89-6.32-6.89-14.38s3-14.39,6.89-14.39,6.88,6.32,6.88,14.39S268.58,163.85,264.73,163.85Zm0-27.77c-3.19,0-5.89,6.13-5.89,13.39s2.7,13.38,5.89,13.38,5.88-6.13,5.88-13.38S267.91,136.08,264.73,136.08Z" fill="#231f20"/><path d="M138.89,74.25c.33-1,.65-1.92,1-2.88.18-.5.38-1,.58-1.48A1.41,1.41,0,0,1,142,69c.78.08,1.55.25,2.33.37a7.81,7.81,0,0,0,1.25.17,1.41,1.41,0,0,0,.87-.28c.89-.85,1.74-1.74,2.59-2.64a1.34,1.34,0,0,0,.26-1.23c-.2-.94-.43-1.87-.62-2.81a3.87,3.87,0,0,1-.1-1.12,1,1,0,0,1,.36-.71,17.07,17.07,0,0,1,4.66-2.12,1.13,1.13,0,0,1,1.32.48c.6.81,1.22,1.61,1.79,2.44a1.9,1.9,0,0,0,1.84.93c1-.08,2.06-.1,3.09-.15a1.16,1.16,0,0,0,.93-.56c.37-.54.71-1.1,1.07-1.65s.62-.94.94-1.4a1.19,1.19,0,0,1,1.43-.49c1.42.49,2.85,1,4.26,1.54a1.26,1.26,0,0,1,.77,1.38c-.08.79-.26,1.57-.39,2.35,0,.37-.11.75-.14,1.12a1.55,1.55,0,0,0,.48,1.31c.75.71,1.51,1.41,2.23,2.14a1.69,1.69,0,0,0,1.68.48c1-.22,2-.47,3.05-.69a1.36,1.36,0,0,1,1.71.81c.58,1.22,1.14,2.44,1.68,3.68a1.44,1.44,0,0,1-.53,2c-.52.42-1.09.78-1.63,1.18-.38.28-.76.58-1.12.9a1.29,1.29,0,0,0-.48,1c0,1.07,0,2.14.09,3.2a1.66,1.66,0,0,0,.86,1.42l1.75,1a10.73,10.73,0,0,1,1.05.71,1.26,1.26,0,0,1,.48,1.53c-.47,1.28-.95,2.57-1.44,3.85a3,3,0,0,1-.32.54,1.14,1.14,0,0,1-1.2.57l-2.77-.46-.21,0a2,2,0,0,0-2.12.75c-.52.61-1.11,1.17-1.68,1.76a2,2,0,0,0-.51,2c.23.89.45,1.79.63,2.7a1.33,1.33,0,0,1-.87,1.8c-1.25.6-2.53,1.17-3.81,1.71a1.27,1.27,0,0,1-1.69-.44c-.5-.62-1-1.28-1.41-1.93-1-1.4-1.25-1.52-3-1.44l-2,.12a1.85,1.85,0,0,0-1.58.91c-.4.68-.79,1.36-1.22,2a6.35,6.35,0,0,1-.77,1,1,1,0,0,1-1.06.27l-4-1.51a2.7,2.7,0,0,1-.52-.3,1.14,1.14,0,0,1-.57-1.19l.45-2.75c0-.28.06-.56.08-.84a1.46,1.46,0,0,0-.46-1.24q-1.11-1-2.19-2a1.62,1.62,0,0,0-1.6-.39c-.9.22-1.8.42-2.7.63l-.1,0c-1.19.22-1.57.07-2.08-1S140,88,139.48,86.72A1.22,1.22,0,0,1,140,85c.72-.54,1.45-1.07,2.21-1.56a2.17,2.17,0,0,0,1.08-2.13c-.06-1-.09-1.93-.14-2.89a1.2,1.2,0,0,0-.56-1c-.8-.51-1.61-1-2.4-1.53a2.67,2.67,0,0,1-1.27-1.32Zm30.58,5.37a9.12,9.12,0,0,0-9.19-9.14,9.27,9.27,0,0,0-9,9.15,9.13,9.13,0,0,0,9.05,9.08A9,9,0,0,0,169.47,79.62Z" fill="#fff"/><path d="M155.15,101.6a1.6,1.6,0,0,1-.52-.1l-1.13-.42L150.58,100a2.63,2.63,0,0,1-.55-.31,1.68,1.68,0,0,1-.85-1.73l.19-1.21c.09-.51.17-1,.25-1.53a7.22,7.22,0,0,0,.08-.8,1,1,0,0,0-.3-.84c-.67-.61-1.32-1.22-2-1.84l-.21-.2a1.14,1.14,0,0,0-1.14-.27c-.64.16-1.29.3-1.94.45l-.77.18-.13,0c-1.43.26-2,0-2.61-1.31-.5-1-1-2.19-1.6-3.7a1.71,1.71,0,0,1,.65-2.28c.84-.63,1.55-1.14,2.24-1.58a1.69,1.69,0,0,0,.85-1.68c0-.6-.06-1.2-.09-1.8,0-.36,0-.73,0-1.09a.71.71,0,0,0-.33-.61l-1-.62-1.43-.91a3.1,3.1,0,0,1-1.46-1.58.41.41,0,0,1,0-.16v-.35a.45.45,0,0,1,0-.16l.28-.83.71-2.06c.18-.51.38-1,.59-1.5a1.91,1.91,0,0,1,2-1.24c.53.06,1.05.15,1.57.25l.78.13.32.06a5.18,5.18,0,0,0,.84.1,1,1,0,0,0,.53-.14c.94-.89,1.82-1.82,2.57-2.62a.83.83,0,0,0,.14-.78c-.09-.42-.18-.84-.28-1.26s-.23-1-.34-1.56a4.7,4.7,0,0,1-.11-1.27,1.53,1.53,0,0,1,.6-1.08,17.48,17.48,0,0,1,4.79-2.18,1.66,1.66,0,0,1,1.86.66c.21.29.42.58.64.86.39.53.78,1.06,1.15,1.6a1.4,1.4,0,0,0,1.39.71c.68,0,1.35-.08,2-.1l1.07-.05a.63.63,0,0,0,.54-.34c.22-.32.43-.64.64-1l.59-.91c.26-.4.52-.8.8-1.18a1.67,1.67,0,0,1,2-.67c1.73.6,3,1.07,4.28,1.54a1.74,1.74,0,0,1,1.08,1.89c0,.55-.15,1.09-.24,1.61-.05.26-.1.52-.14.78s-.11.72-.14,1.08a1.06,1.06,0,0,0,.32.91l.5.46c.59.56,1.18,1.11,1.75,1.69a1.19,1.19,0,0,0,1.21.34l1.46-.33q.79-.19,1.59-.36a1.87,1.87,0,0,1,2.27,1.08c.58,1.22,1.15,2.46,1.68,3.7a1.92,1.92,0,0,1-.67,2.62c-.32.26-.65.49-1,.72l-.66.47c-.37.28-.74.57-1.1.87a.86.86,0,0,0-.3.67l0,.65c0,.85,0,1.69.07,2.54a1.15,1.15,0,0,0,.62,1l.72.43,1,.62a12.29,12.29,0,0,1,1.1.73,1.77,1.77,0,0,1,.64,2.1c-.48,1.29-1,2.57-1.45,3.86a2.84,2.84,0,0,1-.33.6,1.63,1.63,0,0,1-1.73.82L176,90.36l-.24,0a1.51,1.51,0,0,0-1.63.58c-.38.45-.8.87-1.2,1.27l-.5.51a1.53,1.53,0,0,0-.39,1.54c.22.87.45,1.8.64,2.73a1.82,1.82,0,0,1-1.14,2.35c-1.16.55-2.42,1.12-3.84,1.72a1.74,1.74,0,0,1-2.27-.59c-.41-.52-.8-1.06-1.18-1.6l-.25-.35c-.9-1.26-1-1.3-2.53-1.23l-2,.12a1.35,1.35,0,0,0-1.17.67l-.4.67c-.27.46-.54.92-.83,1.36a6.35,6.35,0,0,1-.83,1A1.46,1.46,0,0,1,155.15,101.6Zm-8.7-11.39a2.06,2.06,0,0,1,1.44.59l.21.2c.66.61,1.31,1.23,2,1.83a2,2,0,0,1,.63,1.64,8.65,8.65,0,0,1-.09.89c-.08.51-.16,1-.25,1.54l-.2,1.2a.65.65,0,0,0,.35.7,2.92,2.92,0,0,0,.42.25l2.92,1.09,1.13.42a.44.44,0,0,0,.52-.15,5.48,5.48,0,0,0,.71-.88c.28-.44.55-.88.81-1.33l.41-.67a2.36,2.36,0,0,1,2-1.16l2-.12c1.89-.09,2.3.11,3.39,1.65l.26.35c.37.53.74,1.06,1.14,1.56a.78.78,0,0,0,1.1.29c1.41-.6,2.65-1.15,3.79-1.7.66-.32.75-.51.6-1.25-.18-.91-.41-1.83-.63-2.68a2.51,2.51,0,0,1,.64-2.48l.51-.52c.39-.4.79-.79,1.15-1.22a2.5,2.5,0,0,1,2.61-.91l.18,0,2.77.46a.65.65,0,0,0,.71-.34,2.9,2.9,0,0,0,.26-.45q.74-1.92,1.44-3.84a.78.78,0,0,0-.31-1,11,11,0,0,0-1-.67c-.33-.21-.67-.4-1-.6l-.74-.44a2.18,2.18,0,0,1-1.1-1.82c0-.86-.05-1.71-.07-2.57l0-.65a1.8,1.8,0,0,1,.65-1.44,14.63,14.63,0,0,1,1.16-.92c.22-.17.45-.33.68-.49s.63-.44.93-.68a1,1,0,0,0,.38-1.44c-.54-1.23-1.1-2.46-1.67-3.66a.88.88,0,0,0-1.16-.54l-1.57.35L175,69a2.18,2.18,0,0,1-2.13-.62c-.56-.57-1.15-1.11-1.73-1.66l-.5-.47a2,2,0,0,1-.63-1.71c0-.39.09-.77.15-1.16s.09-.53.14-.8c.1-.53.19-1,.24-1.52a.76.76,0,0,0-.45-.86c-1.22-.47-2.53-.94-4.25-1.54A.69.69,0,0,0,165,59c-.27.38-.52.76-.77,1.15l-.59.9c-.21.33-.43.67-.65,1a1.61,1.61,0,0,1-1.32.78l-1.08.05c-.67,0-1.33,0-2,.09a2.37,2.37,0,0,1-2.28-1.14c-.36-.53-.75-1-1.13-1.56l-.65-.87a.67.67,0,0,0-.8-.29,16.64,16.64,0,0,0-4.51,2.06.69.69,0,0,0-.13.34,3.55,3.55,0,0,0,.09,1c.11.51.22,1,.34,1.54s.19.85.28,1.27a1.79,1.79,0,0,1-.39,1.67c-.76.81-1.66,1.76-2.61,2.66a2,2,0,0,1-1.2.42,5.81,5.81,0,0,1-1-.12l-.3,0-.8-.14c-.5-.09-1-.18-1.5-.23a.92.92,0,0,0-1,.63q-.3.72-.57,1.44c-.24.68-.47,1.37-.7,2l-.26.75v.19a2.32,2.32,0,0,0,1,1l1.42.91,1,.63a1.67,1.67,0,0,1,.79,1.4c0,.36,0,.73,0,1.1,0,.59.05,1.18.09,1.77a2.67,2.67,0,0,1-1.31,2.59c-.66.43-1.36.92-2.18,1.54-.49.37-.54.57-.33,1.11.61,1.49,1.1,2.62,1.58,3.65.41.85.55.93,1.54.74l.85-.19c.64-.15,1.29-.29,1.92-.45A2.7,2.7,0,0,1,146.45,90.21Zm13.91-1h0a9.6,9.6,0,0,1-9.55-9.58,9.49,9.49,0,0,1,2.84-6.77A9.78,9.78,0,0,1,160.28,70,9.59,9.59,0,0,1,170,79.6a9.11,9.11,0,0,1-2.57,6.61A9.57,9.57,0,0,1,160.36,89.21ZM160.24,71a8.66,8.66,0,0,0-5.91,2.59,8.49,8.49,0,0,0-2.54,6.06,8.59,8.59,0,0,0,8.55,8.58h0a8.57,8.57,0,0,0,6.31-2.69,8.07,8.07,0,0,0,2.3-5.87v0A8.6,8.6,0,0,0,160.28,71Z" fill="#231f20"/><path d="M211.74,106.06c-1.48,0-3-.07-4.45,0a4.06,4.06,0,0,1-4.59-3.34,24.14,24.14,0,0,0-5-9.3,19.73,19.73,0,0,1-4.38-14.35c1-10.71,9.58-17.2,20.58-16.13,16.23,1.56,20.85,18.37,12.36,30-2.29,3.15-4.49,6.22-5.46,10.06-.54,2.14-2.13,3.1-4.36,3C214.86,106,213.3,106.06,211.74,106.06Z" fill="#fff"/><path d="M206.94,106.58a4.53,4.53,0,0,1-4.72-3.74,24.08,24.08,0,0,0-4.93-9.1A20.34,20.34,0,0,1,192.8,79a18,18,0,0,1,6.3-12.49,20,20,0,0,1,14.83-4.09c7.12.69,12.73,4.45,15.37,10.32,2.89,6.42,1.87,14.28-2.66,20.51-2.16,3-4.4,6.06-5.38,9.9-.58,2.28-2.31,3.47-4.86,3.39-1.05,0-2.12,0-3.17,0h-1.49l-1.37,0c-1,0-2.05,0-3.06,0Zm4.65-43.25a18.39,18.39,0,0,0-11.85,4,16.92,16.92,0,0,0-5.94,11.81,19.11,19.11,0,0,0,4.28,14,25,25,0,0,1,5.11,9.49,3.57,3.57,0,0,0,4.07,3c1,0,2.1,0,3.12,0l1.36,0h1.49c1.05,0,2.13,0,3.21,0,2.09.08,3.39-.81,3.85-2.64,1-4,3.32-7.18,5.54-10.23,4.32-5.94,5.3-13.42,2.56-19.52-2.53-5.62-7.7-9.07-14.56-9.74C213.08,63.37,212.33,63.33,211.59,63.33Z" fill="#231f20"/><rect x="203.76" y="106.08" width="15.89" height="4.51" rx="1.95" fill="#fff"/><path d="M217.71,111.09h-12a2.45,2.45,0,0,1-2.45-2.44V108a2.45,2.45,0,0,1,2.45-2.44h12a2.45,2.45,0,0,1,2.45,2.44v.63A2.45,2.45,0,0,1,217.71,111.09Zm-12-4.51a1.45,1.45,0,0,0-1.45,1.44v.63a1.44,1.44,0,0,0,1.45,1.44h12a1.44,1.44,0,0,0,1.45-1.44V108a1.45,1.45,0,0,0-1.45-1.44Z" fill="#231f20"/><rect x="203.76" y="110.59" width="15.89" height="4.51" rx="1.95" fill="#fff"/><path d="M217.71,115.61h-12a2.45,2.45,0,0,1-2.45-2.45v-.62a2.45,2.45,0,0,1,2.45-2.45h12a2.45,2.45,0,0,1,2.45,2.45v.62A2.45,2.45,0,0,1,217.71,115.61Zm-12-4.52a1.45,1.45,0,0,0-1.45,1.45v.62a1.45,1.45,0,0,0,1.45,1.45h12a1.45,1.45,0,0,0,1.45-1.45v-.62a1.45,1.45,0,0,0-1.45-1.45Z" fill="#231f20"/><path d="M217.87,115.11c0,1.7-2.76,3.08-6.16,3.08s-6.16-1.38-6.16-3.08Z" fill="#fff"/><path d="M211.71,118.69c-3.74,0-6.66-1.57-6.66-3.58a.5.5,0,0,1,.5-.5h12.32a.5.5,0,0,1,.5.5C218.37,117.12,215.45,118.69,211.71,118.69Zm-5.54-3.08c.53,1.06,2.65,2.08,5.54,2.08s5-1,5.54-2.08Z" fill="#231f20"/><path d="M209,104.29h0a.5.5,0,0,1-.46-.54l0-.44a55.45,55.45,0,0,0,.21-10.62,14,14,0,0,1-6.16-2.56A7.59,7.59,0,0,1,200,87.05a4.19,4.19,0,0,1,.33-4.11,4,4,0,0,1,5.87-.28,16.31,16.31,0,0,1,2.94,6.56,23.06,23.06,0,0,1,.51,2.58,13.77,13.77,0,0,0,5-.42l0-.26,0-.38c.34-2.92.76-6.56,2.87-8.87.35-.39,1.6-1.63,2.94-1.49a2,2,0,0,1,1.54,1.13,6,6,0,0,1,0,5.49,9.65,9.65,0,0,1-3.8,3.91,13.34,13.34,0,0,1-2.69,1.23A47.33,47.33,0,0,0,216,103.6a.51.51,0,0,1-.42.57.51.51,0,0,1-.57-.42,48.26,48.26,0,0,1-.47-11.31,14.7,14.7,0,0,1-4.81.37,57.38,57.38,0,0,1-.23,10.57l0,.45A.5.5,0,0,1,209,104.29Zm-5.59-21.78h-.15a2.77,2.77,0,0,0-2.13,1,3.27,3.27,0,0,0-.21,3.13,6.63,6.63,0,0,0,2.27,2.66,13,13,0,0,0,5.43,2.33c-.12-.73-.26-1.46-.45-2.18a15.24,15.24,0,0,0-2.72-6.15A2.74,2.74,0,0,0,203.37,82.51Zm16.92-1.14a3.25,3.25,0,0,0-2,1.17c-1.89,2.08-2.29,5.54-2.61,8.32l0,.18a11.56,11.56,0,0,0,2.07-1,8.65,8.65,0,0,0,3.41-3.48,5,5,0,0,0,0-4.57,1,1,0,0,0-.77-.62Z" fill="#231f20"/><path d="M265.93,83c-6.51,0-11.61-12.28-11.61-28s5.1-27.95,11.61-27.95,11.61,12.28,11.61,27.95S272.44,83,265.93,83Zm0-54.91c-5.85,0-10.61,12.09-10.61,26.95s4.76,27,10.61,27,10.61-12.09,10.61-27S271.78,28.1,265.93,28.1Z" fill="#231f20"/><path d="M281.77,71.1c-.57,0-1.16,0-1.78-.06-5.64-.36-12.42-2.32-19.09-5.52s-12.43-7.27-16.24-11.45-5.31-8.25-3.93-11.12,5.33-4.25,11.14-3.88c5.64.36,12.42,2.32,19.09,5.52S283.39,51.86,287.2,56s5.3,8.25,3.92,11.12C289.89,69.72,286.6,71.1,281.77,71.1ZM250.12,40c-4.39,0-7.44,1.2-8.48,3.38h0c-1.18,2.44.19,6.09,3.76,10,3.72,4.09,9.38,8.07,15.94,11.22s13.2,5.07,18.72,5.42c5.28.34,9-.87,10.16-3.32s-.19-6.09-3.76-10c-3.72-4.09-9.38-8.07-15.94-11.22s-13.2-5.07-18.72-5.42Q250.93,40,250.12,40Zm-8.94,3.16h0Z" fill="#231f20"/><path d="M250.09,71.1c-4.83,0-8.12-1.38-9.36-3.94-1.38-2.87,0-6.82,3.93-11.12s9.58-8.25,16.24-11.45,13.45-5.16,19.09-5.52c5.8-.37,9.76,1,11.14,3.88h0c1.37,2.87,0,6.82-3.93,11.12S277.62,62.32,271,65.52,257.51,70.68,251.87,71C251.25,71.08,250.66,71.1,250.09,71.1ZM281.74,40q-.81,0-1.68.06c-5.52.35-12.17,2.27-18.72,5.42s-12.22,7.13-15.94,11.22c-3.57,3.92-4.94,7.57-3.77,10s4.89,3.66,10.17,3.32c5.52-.35,12.17-2.27,18.72-5.42s12.22-7.13,15.94-11.22c3.57-3.92,4.94-7.57,3.76-10h0C289.18,41.21,286.13,40,281.74,40Z" fill="#231f20"/><circle cx="265.93" cy="55.05" r="6.05" fill="#231f20"/><path d="M180.45,57.77a.51.51,0,0,1-.48-.65l6.57-21.83a.53.53,0,0,1,.42-.36l3.2-.37a.49.49,0,0,1,.49.24l11.41,19.71a.49.49,0,0,1,0,.47.47.47,0,0,1-.38.27l-4.23.51a.48.48,0,0,1-.49-.26l-2.34-4.23-8.33,1-1.23,4.65a.51.51,0,0,1-.43.36l-4.13.49Zm7-21.88-6.26,20.79,3-.36,1.23-4.64a.49.49,0,0,1,.42-.37l9-1.07a.49.49,0,0,1,.5.26l2.34,4.22,3.13-.37L190,35.59ZM186.78,49a.48.48,0,0,1-.37-.17.52.52,0,0,1-.11-.46l2.26-8.83a.49.49,0,0,1,.42-.37.48.48,0,0,1,.5.26l4.2,8.07a.49.49,0,0,1,0,.47.52.52,0,0,1-.38.26l-6.46.76Zm2.42-8-1.75,6.87,5-.6Z" fill="#231f20"/><path d="M240.87,92.76l.63.12a9.35,9.35,0,0,0,1,.13,2.86,2.86,0,0,0,.94-.1,1.77,1.77,0,0,0,.74-.47,2,2,0,0,0,.43-1,1.76,1.76,0,0,0-.32-1.45,2.1,2.1,0,0,0-1.37-.8,2.24,2.24,0,0,0-1.38.17,2.38,2.38,0,0,0-1,1l-2.44-1.16A4.41,4.41,0,0,1,239,88a3.93,3.93,0,0,1,1.22-.77,4.86,4.86,0,0,1,1.44-.31,6.67,6.67,0,0,1,3.26.66,4.4,4.4,0,0,1,1.32,1,3.52,3.52,0,0,1,.78,1.37,3.6,3.6,0,0,1,.07,1.74,3.5,3.5,0,0,1-1,1.93,3.08,3.08,0,0,1-2,.85v0A3,3,0,0,1,245.93,96a3.83,3.83,0,0,1,.28,2.43,4,4,0,0,1-.72,1.75,4.17,4.17,0,0,1-1.31,1.13,4.84,4.84,0,0,1-1.69.52,6.61,6.61,0,0,1-1.88-.06,7.47,7.47,0,0,1-1.64-.5,4.8,4.8,0,0,1-1.31-.86,4,4,0,0,1-.91-1.24,4.66,4.66,0,0,1-.43-1.66l2.71-.21a2.6,2.6,0,0,0,.54,1.52,2.35,2.35,0,0,0,1.44.77,2.53,2.53,0,0,0,1,0,2.4,2.4,0,0,0,.85-.31,2.13,2.13,0,0,0,.66-.61,2.16,2.16,0,0,0,.36-.88,2.07,2.07,0,0,0-.09-1.18,2,2,0,0,0-.62-.8,3.36,3.36,0,0,0-1-.5,7.79,7.79,0,0,0-1.1-.29l-.59-.1Z" fill="#fff"/><path d="M241.76,102.4a7.52,7.52,0,0,1-1.24-.11,8.11,8.11,0,0,1-1.75-.54,5.18,5.18,0,0,1-1.45-.94,4.72,4.72,0,0,1-1-1.39,5.25,5.25,0,0,1-.48-1.83.49.49,0,0,1,.12-.37.51.51,0,0,1,.34-.17l2.71-.22a.55.55,0,0,1,.37.12.53.53,0,0,1,.17.35,2.22,2.22,0,0,0,.43,1.24,1.83,1.83,0,0,0,1.15.58,2.22,2.22,0,0,0,.77,0,2,2,0,0,0,.68-.25,1.86,1.86,0,0,0,.5-.47,1.66,1.66,0,0,0,.28-.68,1.59,1.59,0,0,0-.06-.89,1.41,1.41,0,0,0-.47-.6,2.84,2.84,0,0,0-.81-.43,10.46,10.46,0,0,0-1-.27l-.59-.1a.5.5,0,0,1-.4-.58l.4-2.19a.5.5,0,0,1,.58-.4l.63.12a8.28,8.28,0,0,0,1,.12,2.07,2.07,0,0,0,.76-.08,1.06,1.06,0,0,0,.52-.33,1.41,1.41,0,0,0,.31-.74,1.26,1.26,0,0,0-.23-1.06,1.59,1.59,0,0,0-1.06-.61,1.74,1.74,0,0,0-1.08.14,1.87,1.87,0,0,0-.83.8.5.5,0,0,1-.65.2l-2.43-1.15a.48.48,0,0,1-.26-.3.45.45,0,0,1,0-.39,4.86,4.86,0,0,1,1-1.38,4.26,4.26,0,0,1,1.38-.86,5.25,5.25,0,0,1,1.59-.35,6.73,6.73,0,0,1,1.67.1,6.86,6.86,0,0,1,1.84.61,5.15,5.15,0,0,1,1.47,1.1,4,4,0,0,1,.89,1.56,4.22,4.22,0,0,1,.08,2,4,4,0,0,1-1.17,2.2,3.59,3.59,0,0,1-1,.68,3.23,3.23,0,0,1,1,1.18,4.38,4.38,0,0,1,.33,2.74,4.69,4.69,0,0,1-.82,2,4.58,4.58,0,0,1-1.47,1.27,5.45,5.45,0,0,1-1.87.58A6.85,6.85,0,0,1,241.76,102.4ZM236.89,98a3.63,3.63,0,0,0,.31,1,3.5,3.5,0,0,0,.8,1.09,4.22,4.22,0,0,0,1.18.77,6.57,6.57,0,0,0,1.52.46,5.62,5.62,0,0,0,1.73.06,4.15,4.15,0,0,0,1.52-.46,3.71,3.71,0,0,0,1.14-1,3.58,3.58,0,0,0,.63-1.54,3.29,3.29,0,0,0-.24-2.12A2.5,2.5,0,0,0,243.9,95a.51.51,0,0,1-.33-.57.56.56,0,0,1,.47-.44,2.57,2.57,0,0,0,1.7-.72,2.9,2.9,0,0,0,.88-1.65,3.11,3.11,0,0,0-.06-1.5,3,3,0,0,0-.67-1.19,3.93,3.93,0,0,0-1.18-.87,6,6,0,0,0-3-.61,4.12,4.12,0,0,0-1.28.28,3.41,3.41,0,0,0-1.08.67,4.06,4.06,0,0,0-.56.66l1.55.74a2.87,2.87,0,0,1,1-.83,2.73,2.73,0,0,1,1.69-.21,2.61,2.61,0,0,1,1.69,1,2.28,2.28,0,0,1,.4,1.84,2.41,2.41,0,0,1-.55,1.24,2.1,2.1,0,0,1-1,.6,2.9,2.9,0,0,1-1.11.12,8.1,8.1,0,0,1-1.09-.13l-.14,0-.22,1.19.1,0a7.91,7.91,0,0,1,1.16.3,3.9,3.9,0,0,1,1.11.58,2.39,2.39,0,0,1,.9,2.47,2.62,2.62,0,0,1-1.25,1.83,3.21,3.21,0,0,1-1,.38,3.3,3.3,0,0,1-1.13,0,2.79,2.79,0,0,1-1.74-1,2.88,2.88,0,0,1-.58-1.29Z" fill="#231f20"/><path d="M249.47,100.29l2.46.45-2.69,5-2.16-.4Z" fill="#fff"/><path d="M249.24,106.26h-.09l-2.16-.4a.47.47,0,0,1-.36-.26.49.49,0,0,1,0-.44l2.39-5.07a.49.49,0,0,1,.54-.28l2.46.45a.47.47,0,0,1,.36.28.51.51,0,0,1,0,.45l-2.7,5A.51.51,0,0,1,249.24,106.26ZM247.81,105l1.16.21,2.2-4.09-1.41-.26Z" fill="#231f20"/><path d="M260.28,93.26l-3.14,2L256,93.31l5-2.8,2.2.41-2.62,14.29-2.42-.44Z" fill="#fff"/><path d="M260.59,105.71h-.09l-2.42-.45a.5.5,0,0,1-.41-.58l1.91-10.39-2.17,1.38a.49.49,0,0,1-.39.06.48.48,0,0,1-.32-.23l-1.1-1.94a.46.46,0,0,1,0-.38.45.45,0,0,1,.24-.3l5-2.8a.48.48,0,0,1,.33-.06l2.2.4a.52.52,0,0,1,.41.58l-2.63,14.3a.51.51,0,0,1-.49.41Zm-1.84-1.34,1.44.26,2.44-13.31L261.1,91l-4.39,2.46.6,1,2.7-1.72a.52.52,0,0,1,.55,0,.5.5,0,0,1,.21.51Z" fill="#231f20"/><path d="M272,104.3l-6.08-1.11.44-2.41,7.4-7.93,2.75.51-1.69,9.21,2.08.38-.4,2.18-2.08-.38-.53,2.91-2.43-.45Zm1.46-8h0l-4.64,5.12,3.62.66Z" fill="#fff"/><path d="M273.9,108.16h-.09l-2.43-.45a.5.5,0,0,1-.4-.58l.44-2.42-5.58-1a.47.47,0,0,1-.32-.21.45.45,0,0,1-.08-.37l.44-2.41a.5.5,0,0,1,.13-.25l7.4-7.93a.54.54,0,0,1,.45-.15l2.75.51a.5.5,0,0,1,.4.58l-1.6,8.72,1.59.29a.5.5,0,0,1,.4.58l-.4,2.18a.47.47,0,0,1-.21.32.49.49,0,0,1-.37.08l-1.59-.29-.44,2.42a.54.54,0,0,1-.21.32A.55.55,0,0,1,273.9,108.16Zm-1.84-1.35,1.44.26.44-2.41a.5.5,0,0,1,.58-.4l1.59.29.22-1.2-1.59-.29a.49.49,0,0,1-.32-.21.49.49,0,0,1-.08-.37l1.6-8.72-2-.36L266.84,101l-.33,1.77,5.59,1a.5.5,0,0,1,.4.58Zm.35-4.19h-.09L268.7,102a.49.49,0,0,1-.38-.33.51.51,0,0,1,.1-.5L273.06,96a.5.5,0,0,1,.45-.15.56.56,0,0,1,.35.21.58.58,0,0,1,.1.38l-1.06,5.77A.51.51,0,0,1,272.41,102.62Zm-2.64-1.49,2.24.41.66-3.62Z" fill="#231f20"/><path d="M187.09,106.86a4.45,4.45,0,1,1,4.45-4.45A4.46,4.46,0,0,1,187.09,106.86Zm0-7.9a3.45,3.45,0,1,0,3.45,3.45A3.46,3.46,0,0,0,187.09,99Z" fill="#d1d3d4"/><path d="M151.29,52.56a.51.51,0,0,1-.5-.5V46a.51.51,0,0,1,.5-.5.5.5,0,0,1,.5.5v6.11A.5.5,0,0,1,151.29,52.56Z" fill="#231f20"/><path d="M154.35,49.5h-6.11a.5.5,0,0,1-.5-.5.5.5,0,0,1,.5-.5h6.11a.51.51,0,0,1,.5.5A.5.5,0,0,1,154.35,49.5Z" fill="#231f20"/><path d="M237.54,79.49a.54.54,0,0,1-.21,0,.49.49,0,0,1-.24-.66l2.12-4.56a.5.5,0,1,1,.9.42L238,79.2A.52.52,0,0,1,237.54,79.49Z" fill="#231f20"/><path d="M240.88,78.27a.54.54,0,0,1-.21,0l-4.56-2.12a.5.5,0,0,1,.42-.9l4.56,2.11a.5.5,0,0,1,.24.67A.49.49,0,0,1,240.88,78.27Z" fill="#231f20"/><circle cx="190.01" cy="66.1" r="1.19" fill="#d1d3d4"/><path d="M171.42,42.07c-2.58,0-2.58,4,0,4S174,42.07,171.42,42.07Z" fill="#d1d3d4"/><path d="M175.73,114.11a1,1,0,0,0,0,2A1,1,0,0,0,175.73,114.11Z" fill="#d1d3d4"/><path d="M235.29,108.65c-2.57,0-2.57,4,0,4S237.87,108.65,235.29,108.65Z" fill="#d1d3d4"/><rect x="211.81" y="44.44" width="8.15" height="8.15" transform="translate(-4.65 66.58) rotate(-17.35)" fill="#d1d3d4"/><rect x="259.71" y="111.6" width="7.01" height="7.01" transform="translate(53.56 -81.31) rotate(19.51)" fill="#d1d3d4"/><path d="M224.05,32.62a1.43,1.43,0,1,1,1.43-1.43A1.43,1.43,0,0,1,224.05,32.62Zm0-1.86a.43.43,0,1,0,.43.43A.43.43,0,0,0,224.05,30.76Z" fill="#d1d3d4"/></g></svg>