<?xml version="1.0" encoding="UTF-8" standalone="no"?>
<svg
   xmlns:dc="http://purl.org/dc/elements/1.1/"
   xmlns:cc="http://creativecommons.org/ns#"
   xmlns:rdf="http://www.w3.org/1999/02/22-rdf-syntax-ns#"
   xmlns:svg="http://www.w3.org/2000/svg"
   xmlns="http://www.w3.org/2000/svg"
   id="svg8"
   version="1.1"
   viewBox="0 0 37.041666 9.5250002"
   height="36"
   width="140">
  <defs
     id="defs2" />
  <metadata
     id="metadata5">
    <rdf:RDF>
      <cc:Work
         rdf:about="">
        <dc:format>image/svg+xml</dc:format>
        <dc:type
           rdf:resource="http://purl.org/dc/dcmitype/StillImage" />
        <dc:title></dc:title>
      </cc:Work>
    </rdf:RDF>
  </metadata>
  <g
     transform="translate(-83.476044,-100.2256)"
     id="layer1">
    <g
       transform="translate(-9.6107748,0.03422409)"
       id="g254">
      <text
         xml:space="preserve"
         style="font-style:normal;font-variant:normal;font-weight:normal;font-stretch:normal;font-size:5.64444447px;line-height:125%;font-family:'Bauhaus 93';-inkscape-font-specification:'Bauhaus 93, Normal';font-variant-ligatures:normal;font-variant-caps:normal;font-variant-numeric:normal;font-feature-settings:normal;text-align:start;letter-spacing:0px;word-spacing:0px;writing-mode:lr-tb;text-anchor:start;fill:#000000;fill-opacity:1;stroke:none;stroke-width:0.26458332px;stroke-linecap:butt;stroke-linejoin:miter;stroke-opacity:1"
         x="94.815323"
         y="107.15202"
         id="text64"><tspan
           id="tspan62"
           x="94.815323"
           y="107.15202"
           style="font-style:normal;font-variant:normal;font-weight:normal;font-stretch:normal;font-size:5.64444447px;font-family:'Bauhaus 93';-inkscape-font-specification:'Bauhaus 93, Normal';font-variant-ligatures:normal;font-variant-caps:normal;font-variant-numeric:normal;font-feature-settings:normal;text-align:start;writing-mode:lr-tb;text-anchor:start;stroke-width:0.26458332px">C's Page</tspan></text>
      <g
         id="g172"
         style="opacity:1;vector-effect:none;fill:#ff0000;fill-opacity:1;stroke:none;stroke-width:1.33333337;stroke-linejoin:round;stroke-miterlimit:4;stroke-dasharray:none;stroke-dashoffset:0;paint-order:fill markers stroke">
        <path
           id="path174"
           style="fill:#353564;fill-rule:evenodd;stroke:none;stroke-width:1px;stroke-linecap:butt;stroke-linejoin:round;stroke-opacity:1"
           d="m 93.303424,108.1442 v 1.07723 l 3.058571,-0.53275 v -0.94166 z"
           points="93.303424,109.22143 96.361995,108.68868 96.361995,107.74702 93.303424,108.1442 " />
        <path
           id="path182"
           style="fill:#afafde;fill-rule:evenodd;stroke:none;stroke-width:1px;stroke-linecap:butt;stroke-linejoin:round;stroke-opacity:1"
           d="m 93.303424,109.22143 1.228423,0.52917 3.216377,-0.66382 -1.386229,-0.3981 z"
           points="94.531847,109.7506 97.748224,109.08678 96.361995,108.68868 93.303424,109.22143 " />
        <path
           id="path184"
           style="fill:#e9e9ff;fill-rule:evenodd;stroke:none;stroke-width:1px;stroke-linecap:butt;stroke-linejoin:round;stroke-opacity:1"
           d="m 96.361995,107.74702 1.386229,0.29679 v 1.04297 l -1.386229,-0.3981 z"
           points="97.748224,108.04381 97.748224,109.08678 96.361995,108.68868 96.361995,107.74702 " />
        <path
           id="path176"
           style="fill:#4d4d9f;fill-rule:evenodd;stroke:none;stroke-width:1px;stroke-linecap:butt;stroke-linejoin:round;stroke-opacity:1"
           d="m 93.303424,108.1442 1.228423,0.39451 3.216377,-0.4949 -1.386229,-0.29679 z"
           points="94.531847,108.53871 97.748224,108.04381 96.361995,107.74702 93.303424,108.1442 " />
        <path
           id="path180"
           style="fill:#d7d7ff;fill-rule:evenodd;stroke:none;stroke-width:1px;stroke-linecap:butt;stroke-linejoin:round;stroke-opacity:1"
           d="m 94.531847,108.53871 v 1.21189 l 3.216377,-0.66382 v -1.04297 z"
           points="94.531847,109.7506 97.748224,109.08678 97.748224,108.04381 94.531847,108.53871 " />
        <path
           id="path178"
           style="fill:#8686bf;fill-rule:evenodd;stroke:none;stroke-width:1px;stroke-linecap:butt;stroke-linejoin:round;stroke-opacity:1"
           d="m 93.303424,108.1442 1.228423,0.39451 v 1.21189 l -1.228423,-0.52917 z"
           points="94.531847,108.53871 94.531847,109.7506 93.303424,109.22143 93.303424,108.1442 " />
      </g>
      <g
         id="g186"
         style="opacity:1;vector-effect:none;fill:#ff0000;fill-opacity:1;stroke:none;stroke-width:1.33333337;stroke-linejoin:round;stroke-miterlimit:4;stroke-dasharray:none;stroke-dashoffset:0;paint-order:fill markers stroke">
        <path
           id="path188"
           style="fill:#353564;fill-rule:evenodd;stroke:none;stroke-width:1px;stroke-linecap:butt;stroke-linejoin:round;stroke-opacity:1"
           d="m 111.30454,101.29338 v 1.4331 l 1.82531,0.65498 v -1.01807 z"
           points="111.30454,102.72648 113.12985,103.38146 113.12985,102.36339 111.30454,101.29338 " />
        <path
           id="path198"
           style="fill:#e9e9ff;fill-rule:evenodd;stroke:none;stroke-width:1px;stroke-linecap:butt;stroke-linejoin:round;stroke-opacity:1"
           d="m 113.12985,102.36339 1.43741,-0.12722 v 1.06741 l -1.43741,0.0779 z"
           points="114.56726,102.23617 114.56726,103.30358 113.12985,103.38146 113.12985,102.36339 " />
        <path
           id="path190"
           style="fill:#4d4d9f;fill-rule:evenodd;stroke:none;stroke-width:1px;stroke-linecap:butt;stroke-linejoin:round;stroke-opacity:1"
           d="m 111.30454,101.29338 1.93713,-0.25719 1.32559,1.19998 -1.43741,0.12722 z"
           points="113.24167,101.03619 114.56726,102.23617 113.12985,102.36339 111.30454,101.29338 " />
        <path
           id="path196"
           style="fill:#afafde;fill-rule:evenodd;stroke:none;stroke-width:1px;stroke-linecap:butt;stroke-linejoin:round;stroke-opacity:1"
           d="m 111.30454,102.72648 1.93713,-0.15743 1.32559,0.73453 -1.43741,0.0779 z"
           points="113.24167,102.56905 114.56726,103.30358 113.12985,103.38146 111.30454,102.72648 " />
        <path
           id="path194"
           style="fill:#d7d7ff;fill-rule:evenodd;stroke:none;stroke-width:1px;stroke-linecap:butt;stroke-linejoin:round;stroke-opacity:1"
           d="m 113.24167,101.03619 v 1.53286 l 1.32559,0.73453 v -1.06741 z"
           points="113.24167,102.56905 114.56726,103.30358 114.56726,102.23617 113.24167,101.03619 " />
        <path
           id="path192"
           style="fill:#8686bf;fill-rule:evenodd;stroke:none;stroke-width:1px;stroke-linecap:butt;stroke-linejoin:round;stroke-opacity:1"
           d="m 111.30454,101.29338 1.93713,-0.25719 v 1.53286 l -1.93713,0.15743 z"
           points="113.24167,101.03619 113.24167,102.56905 111.30454,102.72648 111.30454,101.29338 " />
      </g>
      <g
         id="g214"
         style="opacity:1;vector-effect:none;fill:#ff0000;fill-opacity:1;stroke:none;stroke-width:1.33333337;stroke-linejoin:round;stroke-miterlimit:4;stroke-dasharray:none;stroke-dashoffset:0;paint-order:fill markers stroke">
        <path
           id="path216"
           style="fill:#353564;fill-rule:evenodd;stroke:none;stroke-width:1px;stroke-linecap:butt;stroke-linejoin:round;stroke-opacity:1"
           d="m 94.437353,101.48237 v 0.9838 l 3.205764,0.34894 v -0.84769 z"
           points="94.437353,102.46617 97.643117,102.81511 97.643117,101.96742 94.437353,101.48237 " />
        <path
           id="path226"
           style="fill:#e9e9ff;fill-rule:evenodd;stroke:none;stroke-width:1px;stroke-linecap:butt;stroke-linejoin:round;stroke-opacity:1"
           d="m 97.643117,101.96742 1.753395,-0.37386 v 0.9526 l -1.753395,0.26895 z"
           points="99.396512,101.59356 99.396512,102.54616 97.643117,102.81511 97.643117,101.96742 " />
        <path
           id="path218"
           style="fill:#4d4d9f;fill-rule:evenodd;stroke:none;stroke-width:1px;stroke-linecap:butt;stroke-linejoin:round;stroke-opacity:1"
           d="m 94.437353,101.48237 1.606399,-0.51377 3.35276,0.62496 -1.753395,0.37386 z"
           points="96.043752,100.9686 99.396512,101.59356 97.643117,101.96742 94.437353,101.48237 " />
        <path
           id="path224"
           style="fill:#afafde;fill-rule:evenodd;stroke:none;stroke-width:1px;stroke-linecap:butt;stroke-linejoin:round;stroke-opacity:1"
           d="m 94.437353,102.46617 1.606399,-0.36959 3.35276,0.44958 -1.753395,0.26895 z"
           points="96.043752,102.09658 99.396512,102.54616 97.643117,102.81511 94.437353,102.46617 " />
        <path
           id="path222"
           style="fill:#d7d7ff;fill-rule:evenodd;stroke:none;stroke-width:1px;stroke-linecap:butt;stroke-linejoin:round;stroke-opacity:1"
           d="m 96.043752,100.9686 v 1.12798 l 3.35276,0.44958 v -0.9526 z"
           points="96.043752,102.09658 99.396512,102.54616 99.396512,101.59356 96.043752,100.9686 " />
        <path
           id="path220"
           style="fill:#8686bf;fill-rule:evenodd;stroke:none;stroke-width:1px;stroke-linecap:butt;stroke-linejoin:round;stroke-opacity:1"
           d="m 94.437353,101.48237 1.606399,-0.51377 v 1.12798 l -1.606399,0.36959 z"
           points="96.043752,100.9686 96.043752,102.09658 94.437353,102.46617 94.437353,101.48237 " />
      </g>
    </g>
    <g
       transform="matrix(2.1045652,0,0,2.1045652,-4.7607716,-74.827218)"
       id="g9465">
      <ellipse
         style="opacity:1;vector-effect:none;fill:#ffffff;fill-opacity:1;stroke:#000000;stroke-width:0.11960974;stroke-linejoin:round;stroke-miterlimit:4;stroke-dasharray:none;stroke-dashoffset:0;paint-order:fill markers stroke"
         id="path373-7"
         cx="58.431789"
         cy="85.655815"
         rx="0.91197836"
         ry="1.012972" />
      <ellipse
         style="opacity:1;vector-effect:none;fill:#000000;fill-opacity:1;stroke:none;stroke-width:0.16282935;stroke-linejoin:round;stroke-miterlimit:4;stroke-dasharray:none;stroke-dashoffset:0;paint-order:fill markers stroke"
         id="path4883-4"
         cx="58.226955"
         cy="85.813637"
         rx="0.42597046"
         ry="0.41531283" />
      <ellipse
         style="opacity:1;vector-effect:none;fill:#ffffff;fill-opacity:1;stroke:#000000;stroke-width:0.11960974;stroke-linejoin:round;stroke-miterlimit:4;stroke-dasharray:none;stroke-dashoffset:0;paint-order:fill markers stroke"
         id="path373-6-8"
         cx="-55.188763"
         cy="85.610954"
         rx="0.91197836"
         ry="1.012972"
         transform="scale(-1,1)" />
      <ellipse
         style="opacity:1;vector-effect:none;fill:#000000;fill-opacity:1;stroke:none;stroke-width:0.16282935;stroke-linejoin:round;stroke-miterlimit:4;stroke-dasharray:none;stroke-dashoffset:0;paint-order:fill markers stroke"
         id="path4883-5-4"
         cx="-55.393597"
         cy="85.768723"
         rx="0.42597046"
         ry="0.41531286"
         transform="scale(-1,1)" />
    </g>
  </g>
  <g
     id="layer2" />
</svg>
